<svg xmlns="http://www.w3.org/2000/svg" width="44" height="32" fill="none" viewBox="0 0 44 32"><mask id="mask0_106_4" style="mask-type:luminance" width="42" height="18" x="1" y="0" maskUnits="userSpaceOnUse"><path fill="#fff" d="M1.08057 0.46637H42.473V17.297H1.08057V0.46637Z"/></mask><g mask="url(#mask0_106_4)"><path fill="#3C7D62" d="M19.0487 16.2867C19.1485 16.3632 19.2511 16.4357 19.3568 16.5038C19.4626 16.5719 19.5708 16.6356 19.6815 16.695C19.7925 16.7541 19.9057 16.8088 20.021 16.8589C20.1361 16.9089 20.2533 16.954 20.3724 16.9944C20.4915 17.0349 20.6121 17.0703 20.734 17.1011C20.8559 17.1316 20.979 17.1571 21.1028 17.1776C21.2268 17.1981 21.3515 17.2133 21.4768 17.2236C21.6022 17.2339 21.7278 17.2391 21.8534 17.2391C21.979 17.2391 22.1046 17.2339 22.2299 17.2236C22.3553 17.2133 22.4799 17.1981 22.604 17.1776C22.7281 17.1571 22.8509 17.1316 22.9731 17.1011C23.095 17.0703 23.2153 17.0349 23.3344 16.9944C23.4535 16.954 23.5707 16.9089 23.6861 16.8589C23.8014 16.8088 23.9143 16.7541 24.0253 16.695C24.1363 16.6356 24.2445 16.5719 24.3499 16.5038C24.4557 16.4357 24.5583 16.3632 24.6581 16.2867L42.4576 2.41784C42.3522 2.26796 42.2384 2.12462 42.1159 1.98811C41.9933 1.85161 41.8634 1.72288 41.7253 1.60224C41.5876 1.48128 41.443 1.36903 41.2916 1.2658C41.1401 1.16226 40.9831 1.06804 40.8205 0.983464C40.6579 0.898888 40.4906 0.824263 40.3189 0.759898C40.1473 0.695222 39.9725 0.641118 39.7944 0.597587C39.6162 0.554055 39.4362 0.521406 39.2543 0.499329C39.0721 0.477564 38.8895 0.46637 38.7061 0.46637H5.00692C4.81259 0.466991 4.61918 0.47974 4.42671 0.504615C4.23424 0.529491 4.04394 0.566804 3.85613 0.615932C3.66832 0.665061 3.48456 0.726005 3.30452 0.798455C3.12418 0.871215 2.94943 0.954858 2.77997 1.04938C2.6105 1.14422 2.44788 1.24932 2.29179 1.36499C2.1357 1.48035 1.98738 1.60535 1.84714 1.73936C1.70691 1.87369 1.576 2.01641 1.4538 2.16722C1.3316 2.31833 1.21966 2.47629 1.11768 2.64171L19.0487 16.2867Z"/></g><mask id="mask1_106_4" style="mask-type:luminance" width="44" height="27" x="0" y="5" maskUnits="userSpaceOnUse"><path fill="#fff" d="M0.39502 5.59564H43.3198V31.0928H0.39502V5.59564Z"/></mask><g mask="url(#mask1_106_4)"><path fill="#3C7D62" d="M26.5347 18.7146C26.3687 18.842 26.1976 18.9627 26.0216 19.0762C25.8457 19.1897 25.6653 19.296 25.4806 19.3946C25.2959 19.4935 25.1075 19.5846 24.9153 19.6679C24.7232 19.7512 24.5282 19.8265 24.3298 19.8939C24.1314 19.9611 23.9309 20.0205 23.7275 20.0712C23.5245 20.1222 23.3196 20.1648 23.1128 20.199C22.9063 20.2329 22.6986 20.2587 22.49 20.2758C22.2813 20.2929 22.0721 20.3013 21.8628 20.3013C21.6532 20.3013 21.4443 20.2929 21.2356 20.2758C21.0267 20.2587 20.819 20.2329 20.6125 20.199C20.4057 20.1648 20.2008 20.1222 19.9978 20.0712C19.7947 20.0205 19.5939 19.9611 19.3958 19.8939C19.1974 19.8265 19.0022 19.7512 18.81 19.6679C18.6178 19.5846 18.4294 19.4935 18.2447 19.3946C18.0603 19.296 17.88 19.1897 17.704 19.0762C17.528 18.9627 17.357 18.842 17.1906 18.7146L0.411621 5.95478V26.5067C0.411621 26.6572 0.419084 26.8074 0.433698 26.9573C0.448312 27.1072 0.470389 27.2558 0.499928 27.4035C0.529157 27.5509 0.565848 27.6967 0.60938 27.8407C0.653222 27.9849 0.703906 28.1264 0.76143 28.2654C0.818954 28.4044 0.883318 28.5403 0.954213 28.6731C1.02511 28.8058 1.10253 28.9349 1.18586 29.0599C1.26951 29.1852 1.35906 29.3058 1.45452 29.4221C1.55029 29.5384 1.65103 29.6497 1.75737 29.7564C1.86403 29.8627 1.97534 29.9638 2.09163 30.0592C2.20793 30.1547 2.32888 30.2442 2.45388 30.3279C2.57888 30.4112 2.70792 30.4886 2.84069 30.5595C2.97346 30.6304 3.10934 30.6948 3.24834 30.7523C3.38733 30.8098 3.5288 30.8605 3.67308 30.9044C3.81705 30.9479 3.96288 30.9846 4.11026 31.0138C4.25796 31.0434 4.40659 31.0654 4.55646 31.08C4.70634 31.095 4.85652 31.1021 5.00702 31.1021H38.7062C38.8567 31.1021 39.0069 31.095 39.1567 31.08C39.3066 31.0654 39.4552 31.0434 39.6026 31.0138C39.7503 30.9846 39.8961 30.9479 40.0401 30.9044C40.1844 30.8605 40.3259 30.8098 40.4649 30.7523C40.6038 30.6948 40.7397 30.6304 40.8725 30.5595C41.0053 30.4886 41.1343 30.4112 41.2593 30.3279C41.3843 30.2442 41.5053 30.1547 41.6216 30.0592C41.7378 29.9638 41.8492 29.8627 41.9558 29.7564C42.0622 29.6497 42.1629 29.5384 42.2587 29.4221C42.3541 29.3058 42.4437 29.1852 42.527 29.0599C42.6107 28.9349 42.6881 28.8058 42.759 28.6731C42.8299 28.5403 42.8942 28.4044 42.9518 28.2654C43.0093 28.1264 43.06 27.9849 43.1038 27.8407C43.1473 27.6967 43.184 27.5509 43.2133 27.4035C43.2428 27.2558 43.2649 27.1072 43.2795 26.9573C43.2941 26.8074 43.3016 26.6572 43.3016 26.5067V5.65161L26.5347 18.7146Z"/></g></svg>