<svg width="103" height="99" viewBox="0 0 103 99" fill="none" xmlns="http://www.w3.org/2000/svg">
<g clip-path="url(#clip0_2337_2)">
<mask id="mask0_2337_2" style="mask-type:luminance" maskUnits="userSpaceOnUse" x="0" y="0" width="103" height="99">
<path d="M102.991 0H0V98.6087H102.991V0Z" fill="white"/>
</mask>
<g mask="url(#mask0_2337_2)">
<path d="M0.813477 93.6099C0.813477 95.8626 2.36449 97.6626 4.30055 97.8006H4.74363H98.4928C100.522 97.8006 102.153 95.9278 102.178 93.6099H94.7959H8.21877H0.813477Z" stroke="#764BA7" stroke-width="2.1913" stroke-miterlimit="10" stroke-linejoin="round"/>
<path d="M23.5632 63.7114C23.5632 68.7671 19.4313 72.8732 14.3439 72.8732C11.4322 72.8732 8.87789 71.5022 7.19238 69.4041V93.6052H95.7923V69.4375C94.102 71.5194 91.539 72.8732 88.6408 72.8732C83.5534 72.8732 79.4383 68.7671 79.4383 63.7114H79.3201C79.3201 68.7671 75.2045 72.8732 70.1176 72.8732C65.0301 72.8732 60.8982 68.7671 60.8982 63.7114H60.4069C60.4069 68.7671 56.2745 72.8732 51.187 72.8732C46.1001 72.8732 41.9851 68.7671 41.9851 63.7114C41.9851 68.7671 37.8532 72.8732 32.7657 72.8732C27.6783 72.8732 23.5632 68.7671 23.5632 63.7114Z" stroke="#764BA7" stroke-width="2.1913" stroke-miterlimit="10" stroke-linejoin="round"/>
<path d="M6.76805 57.5479C5.86944 57.5479 5.14111 58.2716 5.14111 59.1646V62.0948C5.14111 62.2204 5.14111 63.2648 5.14111 63.7116C5.14111 65.8743 5.93234 67.8365 7.19213 69.4043C8.8771 71.5023 11.4319 72.8733 14.3436 72.8733C19.4311 72.8733 23.563 68.7673 23.563 63.7116C23.563 68.7673 27.678 72.8733 32.7655 72.8733C37.8529 72.8733 41.9848 68.7673 41.9848 63.7116C41.9848 68.7673 46.0999 72.8733 51.1868 72.8733C56.2742 72.8733 60.4066 68.7673 60.4066 63.7116H60.898C60.898 68.7673 65.0299 72.8733 70.1173 72.8733C75.2042 72.8733 79.3198 68.7673 79.3198 63.7116H79.4381C79.4381 68.7673 83.5531 72.8733 88.6406 72.8733C91.5387 72.8733 94.1017 71.5196 95.7921 69.4377C97.0692 67.8656 97.8599 65.8872 97.8599 63.7116C97.8599 63.2653 97.8605 62.2204 97.8599 62.0948V59.1646C97.8599 58.2716 97.1316 57.5479 96.233 57.5479H95.4027H81.8785H76.8794H63.3384H57.9657H44.4252H39.5444H26.0034H21.1225H7.58152H6.76805Z" stroke="#764BA7" stroke-width="2.1913" stroke-miterlimit="10" stroke-linejoin="round"/>
<path d="M33.0668 37.0396C33.0668 37.5036 32.9849 37.9401 32.9176 38.3858C32.2538 42.7964 28.4728 46.1986 23.8496 46.1986C20.7872 46.1986 18.0957 44.695 16.4199 42.4105V57.5479H86.5958V42.396C84.9212 44.6896 82.221 46.1986 79.151 46.1986C74.5277 46.1986 70.7467 42.7964 70.0829 38.3858C70.0162 37.9401 69.9338 37.5036 69.9343 37.0396C69.9343 37.5036 69.8524 37.9401 69.7852 38.3858C69.6491 39.2896 69.3595 40.1324 68.981 40.9311C68.9392 41.0195 68.9067 41.1106 68.8622 41.1974C68.4842 41.9341 68.0021 42.605 67.4473 43.2097C67.3399 43.3277 67.2336 43.4377 67.1197 43.5498C66.5459 44.1151 65.9066 44.6158 65.1994 45.0151C65.0942 45.0739 64.9792 45.1078 64.8718 45.1628C64.1007 45.5584 63.2807 45.8871 62.4 46.0504C61.8528 46.1523 61.2953 46.1986 60.7172 46.1986C56.0945 46.1986 52.3129 42.7964 51.6491 38.3858C51.5824 37.9401 51.5005 37.5036 51.5005 37.0396C51.5005 37.5036 51.4187 37.9401 51.3514 38.3858C51.2164 39.2853 50.9224 40.1211 50.5477 40.9161C50.5455 40.9204 50.5493 40.9268 50.5477 40.9311C50.5059 41.019 50.4729 41.1111 50.4284 41.1974C50.0504 41.9341 49.5683 42.605 49.014 43.2097C48.9077 43.3251 48.7977 43.4399 48.6865 43.5498C48.1171 44.1108 47.4809 44.6029 46.7803 45.0001C46.7743 45.0038 46.7716 45.0114 46.7656 45.0151C46.7266 45.0367 46.6854 45.0529 46.6463 45.0739C46.5769 45.1035 46.5053 45.1283 46.4381 45.1628C45.6669 45.5584 44.8469 45.8871 43.9662 46.0504C43.419 46.1523 42.8615 46.1986 42.2834 46.1986C37.6607 46.1986 33.8792 42.7964 33.2154 38.3858C33.1487 37.9401 33.0668 37.5036 33.0668 37.0396Z" stroke="#764BA7" stroke-width="2.1913" stroke-miterlimit="10" stroke-linejoin="round"/>
<path d="M51.5007 37.0396C51.5007 37.5036 51.4188 37.9401 51.3516 38.3858H51.6493C51.5826 37.9401 51.5007 37.5036 51.5007 37.0396Z" stroke="#764BA7" stroke-width="2.1913" stroke-miterlimit="10" stroke-linejoin="round"/>
<path d="M69.9348 37.0396C69.9348 37.5036 69.8529 37.9401 69.7856 38.3858H70.0834C70.0167 37.9401 69.9348 37.5036 69.9348 37.0396Z" stroke="#764BA7" stroke-width="2.1913" stroke-miterlimit="10" stroke-linejoin="round"/>
<path d="M15.5861 32.186C15.0601 32.186 14.6333 32.6096 14.6333 33.1329V37.0396C14.6333 37.2229 14.6827 37.3905 14.693 37.5721C14.7998 39.3769 15.4121 41.0363 16.4202 42.4106C18.096 44.6951 20.7875 46.1987 23.8499 46.1987C28.4731 46.1987 32.2547 42.7964 32.9179 38.3859C32.9852 37.9402 33.0671 37.5036 33.0671 37.0396C33.0671 37.5036 33.149 37.9402 33.2157 38.3859C33.8795 42.7964 37.6605 46.1992 42.2837 46.1987C42.8618 46.1987 43.4193 46.1523 43.9665 46.0505C44.845 45.8877 45.6677 45.5574 46.4384 45.1629C46.5457 45.1079 46.6613 45.074 46.7659 45.0152C47.4758 44.6148 48.1098 44.1179 48.6868 43.5499C48.798 43.4399 48.9081 43.3251 49.0144 43.2098C49.5675 42.6051 50.0513 41.9336 50.4287 41.1975C50.4732 41.1112 50.5063 41.0191 50.548 40.9312C50.9249 40.1336 51.2161 39.2875 51.3517 38.3859C51.419 37.9402 51.5009 37.5036 51.5009 37.0396C51.5009 37.5036 51.5828 37.9402 51.6495 38.3859C52.3133 42.7964 56.0948 46.1992 60.7175 46.1987C61.2956 46.1987 61.8531 46.1523 62.4003 46.0505C66.2301 45.3391 69.2047 42.2451 69.7855 38.3859C69.8527 37.9402 69.9346 37.5036 69.9346 37.0396C69.9346 37.5036 70.0165 37.9402 70.0832 38.3859C70.747 42.7964 74.528 46.1987 79.1513 46.1987C82.2213 46.1987 84.9209 44.6897 86.5961 42.396C87.5972 41.0245 88.2025 39.3689 88.3088 37.5721C88.3191 37.391 88.3684 37.2234 88.3684 37.0396V33.1329C88.3684 32.6102 87.9416 32.186 87.415 32.186H86.9389H71.3637H68.5051H52.9304H50.0713H34.4966H31.6375H16.0628H15.5861Z" stroke="#764BA7" stroke-width="2.1913" stroke-miterlimit="10" stroke-linejoin="round"/>
<path d="M33.0671 37.0396C33.0671 37.5036 32.9852 37.9401 32.918 38.3858H33.2157C33.149 37.9401 33.0671 37.5036 33.0671 37.0396Z" stroke="#764BA7" stroke-width="2.1913" stroke-miterlimit="10" stroke-linejoin="round"/>
<path d="M48.6216 16.3239C48.6216 15.729 49.107 15.2461 49.7062 15.2461H53.593C54.1922 15.2461 54.6776 15.729 54.6776 16.3239V31.1084C54.6776 31.7039 54.1922 32.1862 53.593 32.1862H49.7062C49.107 32.1862 48.6216 31.7039 48.6216 31.1084V16.3239Z" stroke="#764BA7" stroke-width="2.1913" stroke-miterlimit="10" stroke-linejoin="round"/>
<path d="M48.6219 7.37112C48.6088 6.39997 49.0519 5.20572 49.5156 4.19523C50.3898 2.29012 51.8009 0.808594 51.8009 0.808594C51.8009 0.808594 52.2771 2.67922 53.4116 4.28092C54.2625 5.48273 54.9799 6.62309 54.9799 7.37112C54.9799 9.11563 53.5564 10.5303 51.8009 10.5303C50.0454 10.5303 48.6457 9.11563 48.6219 7.37112Z" stroke="#764BA7" stroke-width="2.1913" stroke-miterlimit="10" stroke-linejoin="round"/>
<path d="M51.6494 8.35352V15.2459" stroke="#764BA7" stroke-width="2.1913" stroke-miterlimit="10" stroke-linecap="round" stroke-linejoin="round"/>
<path d="M48.9233 20.4468L54.9799 15.4321" stroke="#764BA7" stroke-width="2.1913" stroke-miterlimit="10" stroke-linejoin="round"/>
<path d="M48.9233 25.5523L54.9799 20.5376" stroke="#764BA7" stroke-width="2.1913" stroke-miterlimit="10" stroke-linejoin="round"/>
<path d="M48.9233 30.6583L54.9799 25.6436" stroke="#764BA7" stroke-width="2.1913" stroke-miterlimit="10" stroke-linejoin="round"/>
<path d="M25.7212 11.8105L33.7653 32.1863" stroke="#764BA7" stroke-width="2.1913" stroke-miterlimit="10" stroke-linecap="round" stroke-linejoin="round"/>
<path d="M22.0723 2.56738L23.4693 6.10707" stroke="#764BA7" stroke-width="2.1913" stroke-miterlimit="10" stroke-linecap="round" stroke-linejoin="round"/>
<path d="M19.9672 14.0532L16.4199 15.4361" stroke="#764BA7" stroke-width="2.1913" stroke-miterlimit="10" stroke-linecap="round" stroke-linejoin="round"/>
<path d="M35.022 8.18408L31.4785 9.56536" stroke="#764BA7" stroke-width="2.1913" stroke-miterlimit="10" stroke-linecap="round" stroke-linejoin="round"/>
<path d="M20.9065 9.72194L17.3901 8.19678" stroke="#764BA7" stroke-width="2.1913" stroke-miterlimit="10" stroke-linecap="round" stroke-linejoin="round"/>
<path d="M34.0524 15.4237L30.5811 13.918" stroke="#764BA7" stroke-width="2.1913" stroke-miterlimit="10" stroke-linecap="round" stroke-linejoin="round"/>
<path d="M27.8276 7.01384L29.3575 3.53076" stroke="#764BA7" stroke-width="2.1913" stroke-miterlimit="10" stroke-linecap="round" stroke-linejoin="round"/>
<path d="M22.0845 20.0898L23.6133 16.6089" stroke="#764BA7" stroke-width="2.1913" stroke-miterlimit="10" stroke-linecap="round" stroke-linejoin="round"/>
<path d="M77.2956 11.8105L69.2515 32.1863" stroke="#764BA7" stroke-width="2.1913" stroke-miterlimit="10" stroke-linecap="round" stroke-linejoin="round"/>
<path d="M80.9444 2.56738L79.5474 6.10707" stroke="#764BA7" stroke-width="2.1913" stroke-miterlimit="10" stroke-linecap="round" stroke-linejoin="round"/>
<path d="M83.0488 14.0532L86.5961 15.4361" stroke="#764BA7" stroke-width="2.1913" stroke-miterlimit="10" stroke-linecap="round" stroke-linejoin="round"/>
<path d="M67.9941 8.18408L71.5376 9.56536" stroke="#764BA7" stroke-width="2.1913" stroke-miterlimit="10" stroke-linecap="round" stroke-linejoin="round"/>
<path d="M82.1099 9.72194L85.6262 8.19678" stroke="#764BA7" stroke-width="2.1913" stroke-miterlimit="10" stroke-linecap="round" stroke-linejoin="round"/>
<path d="M68.9639 15.4237L72.4352 13.918" stroke="#764BA7" stroke-width="2.1913" stroke-miterlimit="10" stroke-linecap="round" stroke-linejoin="round"/>
<path d="M75.1885 7.01384L73.6587 3.53076" stroke="#764BA7" stroke-width="2.1913" stroke-miterlimit="10" stroke-linecap="round" stroke-linejoin="round"/>
<path d="M80.9316 20.0898L79.4028 16.6089" stroke="#764BA7" stroke-width="2.1913" stroke-miterlimit="10" stroke-linecap="round" stroke-linejoin="round"/>
</g>
</g>
<defs>
<clipPath id="clip0_2337_2">
<rect width="102.67" height="98.9184" fill="white"/>
</clipPath>
</defs>
</svg>
