<svg width="103" height="101" viewBox="0 0 103 101" fill="none" xmlns="http://www.w3.org/2000/svg">
<mask id="mask0_2343_2" style="mask-type:luminance" maskUnits="userSpaceOnUse" x="18" y="-1" width="66" height="102">
<path d="M83.6046 -0.000488281H18.1748V100.139H83.6046V-0.000488281Z" fill="white"/>
</mask>
<g mask="url(#mask0_2343_2)">
<path d="M30.8115 73.4454C30.8115 62.9787 39.7971 54.4941 50.8811 54.4941C61.9651 54.4941 70.9507 62.9787 70.9507 73.4454C70.9507 83.9115 61.9651 92.3966 50.8811 92.3966C39.7971 92.3966 30.8115 83.9115 30.8115 73.4454Z" stroke="#EFB411" stroke-width="2.1913" stroke-miterlimit="10" stroke-linejoin="round"/>
<path d="M51.916 82.637C51.7853 82.5081 51.7704 82.3978 51.7704 81.5582C51.7704 80.4532 51.72 80.3616 51.026 80.2099C50.4653 80.0865 50.3995 80.1325 49.9035 80.9938C49.4261 81.8222 49.3428 81.9199 49.1123 81.9199C48.9585 81.9199 47.7589 81.3038 47.7589 81.2244C47.7589 81.2057 47.9204 81.012 48.1174 80.794C48.8196 80.0197 49.3089 78.8175 49.4683 77.4742C49.599 76.3737 49.5743 76.3955 50.1433 76.8941C52.7103 79.1437 56.8695 77.3296 56.8751 73.9577C56.8793 71.4299 54.4444 69.4661 51.9952 70.0214C51.5091 70.1317 51.469 70.0932 51.6037 69.6446C51.6907 69.3538 51.7257 68.7924 51.7509 67.2731C51.7905 64.8935 51.7046 65.069 52.8281 65.069C53.8961 65.069 53.8853 65.0574 53.8853 66.2252C53.8853 67.3556 53.9017 67.39 54.5139 67.571C55.1816 67.7678 55.2351 67.7349 55.7861 66.7881C56.3967 65.7397 56.3977 65.7392 57.3155 66.2495C58.259 66.7749 58.26 66.78 57.6442 67.8224C57.0758 68.7848 57.0763 68.7798 57.5069 69.2324C58.0028 69.7534 58.0491 69.7523 59.0358 69.1889C60.1063 68.5775 60.1094 68.578 60.6465 69.5212C61.2561 70.5904 61.1141 70.7335 59.4483 70.7335C57.9328 70.7335 58.0331 70.5004 58.0583 73.9638C58.0841 77.3984 57.9524 77.1152 59.524 77.1167C61.04 77.1182 61.2185 77.2598 60.7679 78.1004C60.1685 79.2181 60.0888 79.2419 59.0028 78.6213C58.0717 78.0892 58.0172 78.0877 57.5429 78.5813C57.0737 79.0689 57.0706 79.0279 57.656 80.0258C58.2446 81.0287 58.2415 81.0459 57.35 81.5704C56.4369 82.107 56.3983 82.0908 55.6765 80.8603C55.2511 80.136 55.177 80.0895 54.6296 80.2099C53.9357 80.3616 53.8853 80.4532 53.8853 81.5582C53.8853 82.7852 53.8899 82.7801 52.8281 82.7801C52.1593 82.7801 52.0436 82.7619 51.916 82.637ZM43.2103 81.3757C40.3886 80.7045 39.1869 77.2826 39.851 71.8093C40.4801 66.6217 43.0348 63.7556 46.6827 64.145C49.3474 64.4297 51.0348 66.0219 51.0394 68.2553C51.042 69.4823 50.8511 70.0528 49.8403 71.8452C49.1447 73.0777 49.0594 73.4525 48.9241 75.8629C48.7857 78.3335 48.4317 79.475 47.5171 80.4006C46.6636 81.2649 44.6548 81.7196 43.2103 81.3757ZM45.2381 80.3813C47.1523 80.0212 47.7146 78.992 47.905 75.5023C48.0248 73.2987 48.1709 72.7065 48.9287 71.343C49.9092 69.5799 50.0538 69.1459 50.0049 68.1198C49.9375 66.7163 48.9647 65.7063 47.2702 65.2804C44.3122 64.5365 42.0049 66.4857 41.1283 70.4685C40.7574 72.1522 40.6247 75.344 40.8644 76.793C41.3243 79.5711 42.8579 80.8289 45.2381 80.3813ZM43.4736 76.6509C42.3295 76.3338 41.7585 75.6904 41.5476 74.4812C41.3104 73.1222 41.9092 71.8239 43.0065 71.3182C43.5945 71.0471 45.4048 71.0299 45.9429 71.2904C46.6935 71.654 47.317 72.5735 47.015 72.8703C46.9594 72.925 46.6801 72.9568 46.2526 72.9568C45.5777 72.9568 45.5777 72.9568 45.2453 72.6255C44.9135 72.2948 44.9135 72.2948 44.4408 72.3241C43.6419 72.3742 43.309 72.7697 43.2524 73.7377C43.1835 74.9222 43.6465 75.5397 44.6008 75.5362C45.2757 75.5337 45.6435 75.3344 45.6435 74.9707C45.6435 74.684 45.6435 74.684 45.1147 74.6627C44.5858 74.6415 44.5858 74.6415 44.5858 74.1039V73.5663H45.8627H47.139L47.1601 74.5702C47.1858 75.8255 47.1812 75.8437 46.7182 76.1456C45.8982 76.6802 44.4135 76.9113 43.4736 76.6509ZM46.6595 69.9466C45.0715 69.1212 45.6368 66.8695 47.4337 66.863C49.0876 66.8574 49.6906 69.0165 48.2692 69.8555C47.7882 70.1392 47.105 70.1782 46.6595 69.9466ZM47.8376 69.1773C48.5768 68.7479 48.2409 67.6504 47.3705 67.6504C46.8334 67.6504 46.4111 68.2619 46.6158 68.7434C46.8319 69.2511 47.3766 69.4448 47.8376 69.1773ZM44.1486 67.8507C43.7442 67.6226 43.6933 67.1229 44.0447 66.8321C44.5797 66.3896 45.2742 66.9469 45.0149 67.6115C44.9141 67.8689 44.4223 68.005 44.1486 67.8507ZM37.052 76.5993C36.8832 76.4334 36.9326 73.4803 37.1055 73.3892C37.337 73.2674 38.3195 73.2957 38.4543 73.4277C38.603 73.5738 38.6277 76.4556 38.4816 76.5993C38.427 76.6529 38.157 76.6853 37.7665 76.6853C37.3761 76.6853 37.1065 76.6529 37.052 76.5993ZM50.545 76.5993C50.4195 76.4759 50.4195 71.3733 50.545 71.2499C50.6942 71.1032 55.0962 71.129 55.1539 71.2772C55.2274 71.4659 55.2037 72.228 55.1225 72.2771C55.0808 72.3024 54.463 72.3191 53.7494 72.3145C52.1629 72.3044 52.2077 72.2907 52.2077 72.7849C52.2077 73.1718 52.2077 73.1718 53.4341 73.1718C54.927 73.1718 54.9234 73.1703 54.892 73.8191L54.8699 74.2829L53.557 74.3188L52.2442 74.3547L52.2231 74.8747L52.2015 75.3946H53.6126C54.6127 75.3946 55.0489 75.4199 55.1106 75.4806C55.2259 75.5938 55.2259 76.486 55.1106 76.5993C54.9856 76.7222 50.67 76.7222 50.545 76.5993ZM58.6438 76.6256C58.5717 76.5806 58.5558 75.9838 58.5707 73.8839L58.5897 71.1998L59.6418 71.1796C60.3028 71.1675 60.7221 71.1877 60.7699 71.2347C60.8116 71.2757 61.0163 71.9569 61.2242 72.7474C61.5827 74.111 61.6496 74.3117 61.7196 74.2414C61.7355 74.2248 61.9243 73.5339 62.1388 72.7055L62.5288 71.1998H63.659H64.7892L64.8087 73.8444C64.8221 75.737 64.8041 76.5168 64.745 76.5871C64.6035 76.7551 63.5381 76.7217 63.4424 76.5467C63.3966 76.4622 63.3673 75.7415 63.3673 74.7037C63.3673 73.676 63.3405 73.0266 63.3004 73.0676C63.2639 73.105 63.0365 73.9071 62.7947 74.8499C62.5529 75.7926 62.3122 76.5907 62.2592 76.6236C62.1044 76.7202 61.1336 76.6979 61.0539 76.5957C61.0153 76.5462 60.8121 75.8447 60.6022 75.036C60.3923 74.2278 60.1891 73.4449 60.15 73.2972C59.9921 72.6958 59.9391 73.064 59.9391 74.771C59.9391 76.0303 59.9149 76.5371 59.8517 76.5993C59.7529 76.6959 58.7904 76.7171 58.6438 76.6256ZM37.052 72.799C36.9383 72.6873 36.9383 72.007 37.052 71.8952C37.1893 71.7602 38.3113 71.7814 38.4543 71.922C38.5917 72.0571 38.6107 72.6716 38.4816 72.799C38.427 72.8526 38.157 72.885 37.7665 72.885C37.3761 72.885 37.1065 72.8526 37.052 72.799Z" fill="#EFB411"/>
<path d="M42.1445 45.167C41.9192 45.2241 41.7355 45.3066 41.5977 45.4831L41.6141 45.5149H41.9675L42.1445 45.167Z" stroke="#EFB411" stroke-width="2.1913" stroke-miterlimit="10" stroke-linejoin="round"/>
<path d="M41.5975 45.4829C41.4648 45.6534 41.3403 45.8521 41.3403 46.0833V46.6052C41.3403 47.1635 41.8013 47.6167 42.3692 47.6167H59.3939C59.9623 47.6167 60.4227 47.1635 60.4227 46.6052V46.0833C60.4227 45.8592 60.307 45.6665 60.1815 45.4986L60.1655 45.5148H59.7956H41.9674H41.614L41.5975 45.4829Z" stroke="#EFB411" stroke-width="2.1913" stroke-miterlimit="10" stroke-linejoin="round"/>
<path d="M50.8772 49.188C46.8394 49.188 43.0398 50.154 39.6754 51.8442C31.6832 55.8594 26.1978 64.0112 26.1978 73.4406C26.1978 86.8396 37.2483 97.7043 50.8772 97.7043C64.5066 97.7043 75.5571 86.8396 75.5571 73.4406C75.5571 64.0087 70.0748 55.8584 62.0795 51.8442C58.7166 50.156 54.9124 49.188 50.8772 49.188Z" stroke="#EFB411" stroke-width="2.1913" stroke-miterlimit="10" stroke-linejoin="round"/>
<path d="M42.1444 45.167C41.9191 45.2241 41.7354 45.3066 41.5975 45.4831C41.4648 45.6535 41.3403 45.8523 41.3403 46.0834V46.6054C41.3403 47.1637 41.8013 47.6169 42.3692 47.6169H59.3939C59.9623 47.6169 60.4227 47.1642 60.4227 46.6054V46.0834C60.4227 45.8594 60.307 45.6667 60.1815 45.4988L60.1655 45.5149H59.7956H41.9674L42.1444 45.167Z" stroke="#EFB411" stroke-width="2.1913" stroke-miterlimit="10" stroke-linejoin="round"/>
<path d="M64.6343 0.770996L50.8732 27.9236L43.0445 43.3811L42.1442 45.1669L41.9673 45.5148H59.7955H60.1654L60.1813 45.4987C60.1793 45.4956 60.1844 45.4855 60.1813 45.483L60.7117 44.4396L60.9051 44.0603L61.2426 43.3811L82.8323 0.770996H64.6343Z" stroke="#EFB411" stroke-width="2.1913" stroke-miterlimit="10" stroke-linejoin="round"/>
<path d="M18.9463 0.770996L40.5365 43.3811H43.0444L50.8736 27.9236L37.1284 0.770996H18.9463Z" stroke="#EFB411" stroke-width="2.1913" stroke-miterlimit="10" stroke-linejoin="round"/>
<path d="M42.1445 45.167C41.9192 45.2241 41.7355 45.3066 41.5977 45.4831L41.6141 45.5149H41.9675L42.1445 45.167Z" stroke="#EFB411" stroke-width="2.1913" stroke-miterlimit="10" stroke-linejoin="round"/>
<path d="M40.0702 43.3813C39.6833 43.3813 39.3623 43.6808 39.3623 44.0606V51.3152C39.3623 51.5463 39.4904 51.7122 39.6679 51.8371C43.0328 50.1464 46.835 49.1819 50.8733 49.1819C54.9085 49.1819 58.7148 50.1484 62.0781 51.8371C62.2566 51.7122 62.3997 51.5473 62.3997 51.3152V44.0606C62.3997 43.6808 62.0787 43.3808 61.6923 43.3813H61.2422L60.1809 45.499C60.3064 45.6669 60.4222 45.8596 60.4222 46.0836V46.6056C60.4222 47.1639 59.9618 47.6171 59.3933 47.6171H42.3687C41.8007 47.6171 41.3398 47.1639 41.3398 46.6056V46.0836C41.3398 45.8525 41.4643 45.6537 41.597 45.4833C41.7349 45.3068 41.9185 45.2243 42.1438 45.1672L43.0441 43.3813H40.5362H40.0702Z" stroke="#EFB411" stroke-width="2.1913" stroke-miterlimit="10" stroke-linejoin="round"/>
</g>
</svg>
