<svg width="81" height="93" viewBox="0 0 81 93" fill="none" xmlns="http://www.w3.org/2000/svg">
<g clip-path="url(#clip0_2356_102)">
<mask id="mask0_2356_102" style="mask-type:luminance" maskUnits="userSpaceOnUse" x="0" y="0" width="81" height="93">
<path d="M80.8332 0H0V93H80.8332V0Z" fill="white"/>
</mask>
<g mask="url(#mask0_2356_102)">
<path d="M45.2656 89.1105C42.2652 90.8423 38.5683 90.8423 35.5678 89.1105L5.93937 72.0042C2.93907 70.2717 1.09082 67.0706 1.09082 63.6064V29.3939C1.09082 25.9296 2.93907 22.7277 5.93937 20.996L35.5678 3.88971C38.5683 2.1572 42.2652 2.1572 45.2656 3.88971L74.8942 20.996C77.8947 22.7277 79.7428 25.9296 79.7428 29.3939V63.6064C79.7428 67.0706 77.8947 70.2717 74.8942 72.0042L45.2656 89.1105Z" stroke="#EFB201" stroke-width="2.18108" stroke-miterlimit="10" stroke-linejoin="round"/>
<path d="M45.2651 79.569C42.2647 81.3008 38.5678 81.3008 35.5673 79.569L14.2021 67.2335C11.2018 65.501 9.35352 62.2999 9.35352 58.8356V34.1646C9.35352 30.7003 11.2018 27.4985 14.2021 25.7667L35.5673 13.4312C38.5678 11.6987 42.2647 11.6987 45.2651 13.4312L66.6303 25.7667C69.6308 27.4985 71.4789 30.7003 71.4789 34.1646V58.8356C71.4789 62.2999 69.6308 65.501 66.6303 67.2335L45.2651 79.569Z" stroke="#EFB201" stroke-width="2.18108" stroke-miterlimit="10" stroke-linejoin="round"/>
<path d="M39.1128 34.0188C39.6465 32.9377 41.187 32.9377 41.7207 34.0188L44.9923 40.6471C45.2039 41.0768 45.6132 41.3742 46.0872 41.4425L53.4026 42.5061C54.5949 42.6792 55.0711 44.1448 54.2081 44.986L48.9146 50.1457C48.5722 50.4802 48.4159 50.9615 48.4966 51.4326L49.7464 58.7189C49.9499 59.9068 48.7031 60.812 47.6365 60.2514L41.0933 56.8119C40.6701 56.5887 40.1634 56.5887 39.7403 56.8119L33.1971 60.2514C32.1303 60.812 30.8835 59.9068 31.0873 58.7189L32.3369 51.4326C32.4178 50.9615 32.2614 50.4802 31.9188 50.1457L26.6253 44.986C25.7623 44.1448 26.2385 42.6792 27.4311 42.5061L34.7465 41.4425C35.2203 41.3742 35.6296 41.0768 35.8412 40.6471L39.1128 34.0188Z" stroke="#EFB201" stroke-width="2.18108" stroke-miterlimit="10" stroke-linejoin="round"/>
</g>
</g>
<defs>
<clipPath id="clip0_2356_102">
<rect width="80.8332" height="93" fill="white"/>
</clipPath>
</defs>
</svg>
