<svg width="65" height="65" viewBox="0 0 65 65" fill="none" xmlns="http://www.w3.org/2000/svg">
<mask id="mask0_2371_334" style="mask-type:luminance" maskUnits="userSpaceOnUse" x="11" y="17" width="43" height="18">
<path d="M11.901 17.3215H53.2935V34.1521H11.901V17.3215Z" fill="white"/>
</mask>
<g mask="url(#mask0_2371_334)">
<path d="M29.869 33.1419C29.9688 33.2184 30.0714 33.2908 30.1772 33.3589C30.2829 33.427 30.3911 33.4908 30.5018 33.5502C30.6128 33.6092 30.726 33.664 30.8413 33.714C30.9564 33.7641 31.0736 33.8092 31.1927 33.8496C31.3118 33.89 31.4324 33.9255 31.5543 33.9563C31.6762 33.9867 31.7993 34.0122 31.9231 34.0327C32.0472 34.0533 32.1718 34.0685 32.2972 34.0788C32.4225 34.089 32.5481 34.0943 32.6737 34.0943C32.7993 34.0943 32.9249 34.089 33.0503 34.0788C33.1756 34.0685 33.3003 34.0533 33.4243 34.0327C33.5484 34.0122 33.6712 33.9867 33.7934 33.9563C33.9153 33.9255 34.0356 33.89 34.1547 33.8496C34.2738 33.8092 34.391 33.7641 34.5064 33.714C34.6218 33.664 34.7346 33.6092 34.8456 33.5502C34.9566 33.4908 35.0648 33.427 35.1702 33.3589C35.276 33.2908 35.3786 33.2184 35.4784 33.1419L53.2779 19.273C53.1725 19.1231 53.0587 18.9798 52.9362 18.8433C52.8137 18.7068 52.6837 18.578 52.5456 18.4574C52.4079 18.3364 52.2633 18.2242 52.1119 18.121C51.9604 18.0174 51.8034 17.9232 51.6408 17.8386C51.4782 17.7541 51.3109 17.6794 51.1392 17.6151C50.9676 17.5504 50.7929 17.4963 50.6147 17.4528C50.4365 17.4092 50.2565 17.3766 50.0746 17.3545C49.8924 17.3327 49.7099 17.3215 49.5264 17.3215H15.8272C15.6329 17.3222 15.4395 17.3349 15.247 17.3598C15.0545 17.3847 14.8643 17.422 14.6764 17.4711C14.4886 17.5202 14.3049 17.5812 14.1248 17.6536C13.9445 17.7264 13.7697 17.81 13.6003 17.9045C13.4308 17.9994 13.2682 18.1045 13.1121 18.2202C12.956 18.3355 12.8077 18.4605 12.6675 18.5945C12.5272 18.7289 12.3963 18.8716 12.2741 19.0224C12.1519 19.1735 12.04 19.3315 11.938 19.4969L29.869 33.1419Z" fill="#BABCD5"/>
</g>
<mask id="mask1_2371_334" style="mask-type:luminance" maskUnits="userSpaceOnUse" x="11" y="22" width="44" height="26">
<path d="M11.2154 22.4509H54.1402V47.9481H11.2154V22.4509Z" fill="white"/>
</mask>
<g mask="url(#mask1_2371_334)">
<path d="M37.355 35.5698C37.1889 35.6973 37.0179 35.8179 36.8419 35.9314C36.6659 36.0449 36.4856 36.1512 36.3009 36.2498C36.1162 36.3487 35.9277 36.4398 35.7356 36.5231C35.5434 36.6065 35.3485 36.6817 35.1501 36.7492C34.9517 36.8163 34.7511 36.8757 34.5478 36.9264C34.3447 36.9774 34.1398 37.02 33.933 37.0542C33.7266 37.0881 33.5189 37.1139 33.3102 37.131C33.1016 37.1481 32.8923 37.1565 32.6831 37.1565C32.4735 37.1565 32.2645 37.1481 32.0559 37.131C31.8469 37.1139 31.6392 37.0881 31.4328 37.0542C31.226 37.02 31.0211 36.9774 30.818 36.9264C30.615 36.8757 30.4141 36.8163 30.2161 36.7492C30.0177 36.6817 29.8224 36.6065 29.6302 36.5231C29.4381 36.4398 29.2497 36.3487 29.065 36.2498C28.8806 36.1512 28.7002 36.0449 28.5242 35.9314C28.3482 35.8179 28.1772 35.6973 28.0109 35.5698L11.2319 22.81V43.362C11.2319 43.5125 11.2393 43.6626 11.2539 43.8125C11.2686 43.9624 11.2906 44.111 11.3202 44.2587C11.3494 44.4061 11.3861 44.5519 11.4296 44.6959C11.4735 44.8402 11.5242 44.9816 11.5817 45.1206C11.6392 45.2596 11.7036 45.3955 11.7745 45.5283C11.8454 45.6611 11.9228 45.7901 12.0061 45.9151C12.0898 46.0404 12.1793 46.161 12.2748 46.2773C12.3705 46.3936 12.4713 46.5049 12.5776 46.6116C12.6843 46.7179 12.7956 46.819 12.9119 46.9145C13.0282 47.0099 13.1491 47.0995 13.2741 47.1831C13.3991 47.2664 13.5282 47.3439 13.6609 47.4148C13.7937 47.4857 13.9296 47.55 14.0686 47.6075C14.2076 47.6651 14.3491 47.7157 14.4933 47.7596C14.6373 47.8031 14.7831 47.8398 14.9305 47.869C15.0782 47.8986 15.2268 47.9207 15.3767 47.9353C15.5266 47.9502 15.6768 47.9574 15.8273 47.9574H49.5264C49.6769 47.9574 49.8271 47.9502 49.977 47.9353C50.1269 47.9207 50.2755 47.8986 50.4229 47.869C50.5706 47.8398 50.7164 47.8031 50.8604 47.7596C51.0046 47.7157 51.1461 47.6651 51.2851 47.6075C51.4241 47.55 51.56 47.4857 51.6927 47.4148C51.8255 47.3439 51.9546 47.2664 52.0796 47.1831C52.2046 47.0995 52.3255 47.0099 52.4418 46.9145C52.5581 46.819 52.6694 46.7179 52.7761 46.6116C52.8824 46.5049 52.9832 46.3936 53.0789 46.2773C53.1744 46.161 53.2639 46.0404 53.3473 45.9151C53.4309 45.7901 53.5083 45.6611 53.5792 45.5283C53.6501 45.3955 53.7145 45.2596 53.772 45.1206C53.8295 44.9816 53.8802 44.8402 53.9241 44.6959C53.9676 44.5519 54.0043 44.4061 54.0335 44.2587C54.0631 44.111 54.0851 43.9624 54.0997 43.8125C54.1144 43.6626 54.1218 43.5125 54.1218 43.362V22.5068L37.355 35.5698Z" fill="#BABCD5"/>
</g>
</svg>
