<svg width="197" height="251" viewBox="0 0 197 251" fill="none" xmlns="http://www.w3.org/2000/svg">
<path d="M118.382 250.942C116.403 250.793 114.557 250.296 112.911 249.47C111.664 248.844 110.901 248.304 109.912 247.348C107.535 245.052 106.296 241.957 106.275 238.267C106.258 235.159 106.864 232.497 108.22 229.726C110.02 226.05 112.758 223.306 116.378 221.552C119.085 220.239 121.993 219.694 124.986 219.936C127.169 220.112 128.849 220.572 130.597 221.474C131.982 222.189 132.816 222.879 133.659 224.01L134.006 224.477L133.21 225.063C132.771 225.385 132.02 225.924 131.539 226.26L130.667 226.871L130.232 226.361C128.672 224.53 126.983 223.621 124.719 223.391C121.076 223.021 117.549 224.369 114.733 227.207C112.659 229.298 111.268 232.025 110.697 235.123C110.453 236.443 110.463 239.044 110.715 240.131C111.569 243.809 113.915 246.272 117.418 247.17C119.313 247.655 122.519 247.54 124.69 246.91C125.653 246.63 127.142 245.987 127.142 245.851C127.142 245.808 127.46 243.945 127.85 241.711C128.24 239.476 128.558 237.623 128.558 237.591C128.558 237.559 127.046 237.533 125.198 237.533C122.554 237.533 121.849 237.505 121.887 237.403C121.913 237.33 122.066 236.553 122.228 235.674L122.521 234.076H127.839L133.158 234.075L133.1 234.364C133.069 234.522 132.702 236.609 132.287 239.001C130.993 246.449 130.712 248.058 130.662 248.287C130.626 248.451 130.331 248.635 129.531 248.994C126.191 250.491 122.028 251.219 118.382 250.942ZM67.555 250.731C61.4287 250.255 56.9971 246.51 55.8409 240.835C55.6164 239.734 55.6225 235.883 55.8504 234.627C56.9266 228.693 60.5126 223.871 65.7315 221.342C67.7117 220.382 69.5501 219.89 71.7927 219.719C75.7164 219.418 79.5744 220.603 81.9146 222.826C82.6409 223.516 83.138 224.197 83.0051 224.322C82.9528 224.371 82.2103 224.92 81.3545 225.543L79.7981 226.676L79.5839 226.367C79.4652 226.198 79.0122 225.705 78.5755 225.273C76.9228 223.634 74.6118 222.915 71.847 223.178C68.9195 223.457 66.3385 224.728 64.0864 226.997C61.3514 229.754 59.8609 233.462 59.8718 237.481C59.8806 240.645 60.6957 242.786 62.625 244.717C63.4428 245.535 63.7229 245.739 64.6743 246.212C66.3412 247.041 67.0892 247.206 69.2314 247.215C70.7782 247.222 71.1336 247.191 71.9507 246.976C74.0116 246.436 75.6066 245.53 77.0822 244.058L77.9475 243.195L79.3112 244.34L80.6757 245.485L79.8856 246.331C76.8849 249.546 72.4885 251.115 67.555 250.731ZM9.1884 250.563C5.56511 250.263 2.97936 248.91 1.36403 246.471C0.315633 244.888 -0.070886 243.29 0.0104905 240.874C0.0599946 239.401 0.206444 238.443 1.71937 229.726L3.37473 220.19L5.44238 220.161L7.50999 220.133L7.45101 220.424C7.41914 220.583 6.65421 224.911 5.75161 230.041C4.15866 239.095 4.11118 239.409 4.11864 240.782C4.12406 241.818 4.17766 242.38 4.31735 242.878C4.87953 244.884 6.32259 246.25 8.48585 246.825C9.48949 247.091 11.8162 247.062 12.912 246.769C15.434 246.096 17.3111 244.266 18.2958 241.521C18.8125 240.079 18.9597 239.333 20.5784 229.936C21.4416 224.922 22.1747 220.689 22.2059 220.531L22.2642 220.242H24.296C25.6224 220.242 26.3283 220.28 26.329 220.35C26.3304 220.578 23.1784 238.788 22.9736 239.734C21.9394 244.521 19.5286 247.849 15.8647 249.549C14.1368 250.351 11.4866 250.753 9.1884 250.563ZM175.249 250.397C175.223 250.325 173.99 244.819 172.508 238.162C171.027 231.505 169.776 225.964 169.728 225.849C169.66 225.685 169.621 225.764 169.545 226.216C169.491 226.532 168.517 232.109 167.379 238.608L165.309 250.423H163.347C162.268 250.423 161.386 250.392 161.385 250.354C161.384 250.23 166.454 221.137 166.509 220.949C166.56 220.776 166.78 220.765 169.714 220.791L172.864 220.819L174.822 230.041C175.898 235.113 176.986 240.24 177.24 241.434C177.493 242.628 177.734 243.584 177.775 243.558C177.817 243.532 180.733 238.417 184.255 232.191L190.66 220.871H193.83C196.392 220.871 196.999 220.898 197 221.01C197 221.086 195.862 227.74 194.471 235.796C193.079 243.852 191.94 250.462 191.94 250.486C191.941 250.509 191.021 250.528 189.896 250.528H187.851L187.912 250.188C188.795 245.295 192.174 225.836 192.147 225.805C192.127 225.781 192.092 225.781 192.07 225.805C192.048 225.83 188.873 231.343 185.015 238.058C181.155 244.772 177.951 250.325 177.893 250.397C177.82 250.489 177.414 250.528 176.543 250.528C175.641 250.528 175.283 250.492 175.249 250.397ZM143.57 250.345C139.959 250.33 137.004 250.286 137.004 250.249C137.002 250.119 142.074 221.027 142.131 220.832C142.188 220.642 142.46 220.637 151.225 220.68C156.195 220.703 160.29 220.752 160.326 220.788C160.379 220.839 160.019 223.167 159.816 224.094L159.763 224.329H152.65C148.738 224.329 145.537 224.341 145.537 224.356C145.537 224.412 144.118 232.678 144.063 232.949L144.003 233.237H150.711C156.641 233.237 157.427 233.255 157.482 233.397C157.517 233.486 157.413 234.275 157.253 235.153L156.961 236.747L150.196 236.71L143.431 236.673L143.321 237.234C142.902 239.387 141.698 246.588 141.749 246.639C141.785 246.675 145.224 246.718 149.391 246.736L156.97 246.77L156.965 246.999C156.963 247.124 156.837 247.934 156.687 248.799L156.413 250.371L153.275 250.372C151.549 250.373 147.182 250.361 143.57 250.345ZM94.4181 250.135C94.4195 250.092 95.1837 245.647 96.1162 240.258L97.8108 230.46L99.7171 230.431C101.044 230.412 101.624 230.438 101.624 230.517C101.625 230.667 98.2896 249.79 98.2204 250.03C98.173 250.196 97.9885 250.214 96.2918 250.214C95.2597 250.214 94.4161 250.178 94.4181 250.135ZM28.2807 249.837C28.28 249.708 33.3471 220.62 33.404 220.426C33.4542 220.254 33.779 220.242 38.3056 220.242C40.9714 220.242 43.6303 220.291 44.2142 220.352C47.5228 220.691 49.8713 222.007 50.938 224.118C51.3577 224.95 51.5137 225.704 51.511 226.897C51.5062 229.018 50.9359 230.451 49.5247 231.885C48.4797 232.946 47.531 233.543 46.1008 234.038C45.5447 234.231 45.0659 234.391 45.0368 234.394C45.0083 234.398 45.3284 234.491 45.7482 234.601C47.5615 235.076 49.1741 236.338 49.897 237.848C50.3778 238.851 50.508 239.481 50.5162 240.833C50.5297 243.16 49.8773 244.873 48.3692 246.47C46.8949 248.032 44.7682 249.058 41.7783 249.651C41.0222 249.801 39.9514 249.834 34.5853 249.869C31.118 249.892 28.2807 249.877 28.2807 249.837ZM40.5421 246.284C42.5684 245.978 44.0562 245.29 45.07 244.19C46.8169 242.295 46.8732 239.285 45.1914 237.727C44.5648 237.145 44.0806 236.886 43.0465 236.575C42.3269 236.359 42.0238 236.341 38.4914 236.302L34.7067 236.26L34.5975 236.818C34.3717 237.971 32.968 246.13 32.9687 246.282C32.9694 246.421 33.3857 246.441 36.2393 246.44C38.5999 246.44 39.7968 246.397 40.5421 246.284ZM43.195 232.573C45.245 231.991 46.7009 230.722 47.1485 229.129C47.3275 228.493 47.373 227.324 47.2414 226.732C47.0217 225.742 46.254 224.832 45.2524 224.374C44.004 223.804 43.6039 223.755 40.1115 223.754L36.87 223.753L36.0895 228.154C35.6602 230.575 35.3062 232.618 35.3028 232.694C35.2926 232.921 42.3514 232.814 43.195 232.573ZM100.374 225.578C98.7874 225.279 97.9933 223.681 98.6836 222.177C99.14 221.183 99.9334 220.73 101.116 220.786C101.751 220.817 101.939 220.871 102.32 221.139C104.459 222.638 102.957 226.064 100.374 225.578ZM67.8494 208.532C68.4034 203.679 70.3781 199.045 73.6217 194.987C75.3028 192.883 79.0569 189.404 79.7947 189.265C79.9941 189.227 80.4946 189.219 80.9076 189.246C81.781 189.304 82.6558 189.704 85.6125 191.399C87.3268 192.381 87.358 192.405 87.137 192.575C87.0122 192.671 85.9957 193.38 84.8781 194.151C82.9488 195.483 81.5213 196.55 81.3958 196.755C81.3104 196.895 89.3131 197.021 91.8527 196.919C95.8619 196.757 96.2382 196.798 97.8373 197.561C98.9406 198.089 99.9687 198.869 101.22 200.129L102.097 201.012L90.866 201.07C80.797 201.121 79.5587 201.146 78.903 201.305C76.1803 201.966 74.9908 203.691 74.4463 207.77C74.3615 208.409 74.2916 208.977 74.2923 209.033C74.2923 209.096 73.0602 209.134 71.0366 209.134H67.7809L67.8494 208.532ZM110.922 208.252C110.633 207.766 109.818 206.316 109.11 205.029C106.91 201.027 105.946 199.752 103.755 197.943C100.028 194.867 96.7489 192.854 90.9969 190.108C86.5714 187.996 83.7171 186.426 80.9842 184.601C72.2267 178.754 67.3787 171.251 66.4748 162.143C66.2205 159.575 66.4409 155.968 67.0085 153.435C67.5028 151.226 68.4895 148.498 69.4918 146.571C70.1754 145.256 71.5249 143.19 72.5027 141.96C74.0787 139.979 77.4986 136.92 78.4643 136.63C79.2889 136.383 79.9236 136.472 80.9815 136.986C82.1703 137.564 86.0248 139.753 86.0221 139.848C86.0207 139.886 84.539 140.907 82.7297 142.117C80.9198 143.327 79.4136 144.359 79.3825 144.41C79.3492 144.464 79.6293 144.468 80.0464 144.419C80.4424 144.373 83.0505 144.346 85.8417 144.358C88.7116 144.371 91.4438 144.333 92.1301 144.272C95.1505 144.001 97.2019 144.833 99.7239 147.354L100.882 148.51L89.0052 148.562L77.129 148.615L76.518 148.846C75.1122 149.379 74.5493 150.158 73.6528 152.806C73.4196 153.496 73.0913 154.652 72.9238 155.373C72.7563 156.094 72.595 156.766 72.5638 156.868C72.5109 157.042 73.4284 157.051 90.8274 157.051C103.443 157.051 109.146 157.017 109.145 156.942C109.145 156.735 108.095 153.225 107.815 152.493C106.993 150.336 105.034 147.457 103.001 145.415C100.007 142.407 96.5271 140.273 90.7745 137.915C86.9871 136.362 82.8694 134.159 80.1196 132.215C76.6041 129.728 73.8841 127.1 71.1329 123.53C70.8949 123.221 72.7618 123.667 75.6805 124.617C76.8048 124.982 78.2906 125.424 78.9823 125.596C80.3447 125.937 81.387 126.301 82.862 126.949C83.3814 127.176 84.7967 127.706 86.0078 128.125C89.5118 129.336 92.4895 130.462 94.1882 131.216C105.753 136.348 112.469 143.897 114.715 154.286C115.257 156.793 115.371 157.876 115.39 160.666C115.402 162.704 115.366 163.542 115.224 164.439C114.287 170.366 111.698 175.254 106.981 180.003C105.585 181.408 103.073 183.605 102.933 183.544C102.223 183.233 95.8883 179.972 95.891 179.919C95.8937 179.877 97.0744 178.995 98.5154 177.957C101.105 176.092 102.866 174.645 102.865 174.382C102.864 174.166 91.5835 174.131 88.6668 174.339C85.9855 174.53 84.2149 174.003 82.4219 172.481C81.8265 171.975 80.6431 170.694 80.439 170.334C80.34 170.159 80.9327 170.15 92.2413 170.148C99.4065 170.147 104.44 170.106 104.88 170.044C105.329 169.981 105.873 169.809 106.29 169.6C107.221 169.132 107.697 168.41 108.264 166.607C108.651 165.375 109.282 162.475 109.279 161.945L109.278 161.714H105.224C102.993 161.714 94.8352 161.694 87.0942 161.67C79.3533 161.645 72.8377 161.663 72.6153 161.71L72.2098 161.795L72.2654 162.437C72.3237 163.118 72.3766 163.257 73.6997 166.22C75.0417 169.226 75.5333 170.062 77.148 172.08C80.6451 176.449 85.2551 179.669 91.6391 182.198C95.1335 183.583 97.3348 184.616 99.8107 186.036C106.806 190.048 111.691 195.17 114.374 201.309C115.327 203.487 116.14 206.334 116.496 208.741L116.554 209.134H114.001H111.448L110.922 208.252ZM124.49 141.678C119.748 141.251 117.597 140.959 117.003 140.659C116.572 140.441 115.826 139.94 113.493 138.3C112.739 137.769 110.874 135.966 109.252 134.199C108.096 132.939 106.818 130.894 105.257 127.808C104.133 125.584 103.818 124.759 103.795 123.976C103.776 123.316 103.947 123.054 104.332 123.151C104.48 123.187 105.215 123.606 105.968 124.081C106.72 124.555 107.612 125.105 107.95 125.304C108.99 125.915 110.967 127.649 114.155 130.746C115.653 132.202 118.474 135.185 119.528 136.426C119.855 136.811 120.56 137.455 121.094 137.857C121.628 138.258 122.208 138.737 122.381 138.92C122.555 139.103 122.934 139.426 123.223 139.637C123.838 140.086 125.7 141.52 125.845 141.657C125.943 141.749 125.378 141.758 124.49 141.678ZM135.187 136.821C132.399 136.478 129.843 135.643 126.712 134.05C120.351 130.815 115.507 126.318 112.939 121.263C112.147 119.703 111.852 118.897 111.848 118.278C111.844 117.571 111.999 117.498 113.355 117.573C115.263 117.678 117.406 118.504 119.654 120.002C121.005 120.901 122.187 121.873 124.439 123.937C127.702 126.926 128.96 127.937 131.392 129.522C134.426 131.499 138.047 133.352 142.796 135.359C143.449 135.635 143.823 135.845 143.742 135.889C143.504 136.017 141.345 136.499 140.262 136.667C138.966 136.867 136.237 136.951 135.187 136.821ZM148.222 129.165C137.942 128.432 129.346 124.853 123.204 118.749C121.826 117.379 120.566 115.871 119.568 114.397C119.148 113.778 118.974 113.438 119.062 113.412C119.136 113.39 119.964 113.29 120.901 113.19C124.443 112.811 126.856 113.163 129.596 114.455C130.66 114.958 131.01 115.159 133.605 116.761C137.47 119.147 140.534 120.561 144.937 121.994C148.842 123.264 155.983 124.857 159.055 125.143C159.473 125.183 159.814 125.255 159.815 125.305C159.817 125.736 153.23 128.757 151.475 129.13C150.727 129.29 150.071 129.296 148.222 129.165ZM92.912 127.79C89.2527 126.86 85.5365 125.516 85.6511 125.164C85.6735 125.097 87.3879 124.311 89.4616 123.417C91.5347 122.523 93.2219 121.784 93.211 121.773C93.2002 121.762 92.6285 121.651 91.9409 121.526C89.7986 121.137 87.6408 120.323 85.9278 119.258C84.7065 118.499 84.1565 118.336 82.7914 118.332L81.6203 118.329L81.2372 118.696C80.5509 119.354 80.4695 119.67 80.479 121.663L80.4871 123.426L80.2512 123.355C78.8366 122.927 77.1378 121.319 76.2373 119.557C76.0514 119.193 75.9104 119.028 75.8277 119.077C74.7494 119.712 73.781 120.589 72.7794 121.84C72.1854 122.581 72.1664 122.595 71.7676 122.541C71.5439 122.511 71.337 122.463 71.3078 122.434C71.2787 122.405 71.4679 121.352 71.7283 120.093C71.9887 118.835 72.3352 116.862 72.4987 115.709C72.7733 113.777 72.7991 113.307 72.8364 109.683C72.8825 105.155 72.7618 103.703 72.1454 101.36C71.276 98.0516 70.1632 96.2158 68.5445 95.4206C67.8846 95.0959 67.7788 95.0776 66.1601 94.9995C63.4014 94.8657 62.7511 94.719 61.0524 93.8436C59.8338 93.2161 59.7497 93.2317 58.9298 94.2341C57.994 95.3785 57.4399 96.6213 57.2677 97.964C57.1836 98.618 57.0012 98.766 56.5461 98.5487C56.2722 98.4183 56.1087 98.1996 55.7704 97.5103C54.5958 95.1177 54.4141 92.9328 55.1919 90.5586C56.2166 87.4304 58.6151 85.0364 61.7346 84.0286C62.9369 83.6401 63.6666 83.5695 66.2313 83.5946C67.5842 83.6082 69.1148 83.5993 69.6322 83.5756L70.5741 83.5328L70.905 82.8319C71.2766 82.0454 71.6469 81.7364 72.6173 81.4016C74.2388 80.8413 75.947 80.8501 78.9851 81.4335C82.7338 82.1527 84.2311 82.6465 87.4245 84.2153C89.5715 85.2694 92.0101 86.7119 93.1378 87.5948C93.4857 87.8664 93.9814 88.3568 94.2398 88.6841C94.842 89.4468 96.1243 91.9243 97.4325 94.8548C99.9917 100.586 101.58 103.2 103.496 104.835C105.611 106.639 108.03 107.505 111.001 107.521C111.958 107.526 112.543 107.485 112.69 107.403C113.158 107.14 114.795 104.524 115.687 102.61C116.65 100.545 117.494 97.7167 117.798 95.536C117.866 95.0463 117.916 93.7967 117.909 92.759C117.893 90.5368 117.751 89.6071 116.784 85.393C115.954 81.7724 115.815 80.8549 115.805 78.8738C115.793 76.6197 116.003 75.7919 116.904 74.5436C117.406 73.8475 118.067 73.3768 119.939 72.3805C123.12 70.6881 124.148 69.7298 125.267 67.418L125.765 66.3898L126.099 67.0445C126.52 67.8689 127.859 71.2219 128.375 72.7432C129.206 75.1895 129.932 78.7244 130.155 81.4043C130.355 83.8126 130.075 88.2107 129.571 90.5456C129.135 92.5715 128.244 95.2969 127.26 97.6128C126.498 99.4071 125.079 101.767 122.673 105.241C121.912 106.339 120.311 108.055 118.287 109.94C116.003 112.068 114.524 113.171 111.568 114.951C110.937 115.332 110.175 115.846 109.875 116.095C108.34 117.369 105.934 119.18 103.285 121.055C98.5046 124.436 96.0138 126.233 94.9538 127.065C93.8091 127.962 93.7176 127.994 92.912 127.79ZM95.3756 119.585C96.6329 119.403 97.9471 119.031 99.8479 118.32C102.23 117.428 104.689 115.738 107.788 112.863C109.054 111.69 111.932 108.722 112.25 108.265C112.389 108.063 112.357 108.059 110.494 108.055C108.798 108.052 108.481 108.023 107.497 107.775C106.037 107.407 103.942 106.546 103.074 105.957C102.176 105.347 99.6933 102.812 98.6639 101.453C97.1788 99.4927 96.578 98.4258 94.6541 94.3312C93.1554 91.1406 92.9499 90.7962 91.9639 89.8251C89.859 87.7503 87.1376 86.2983 82.4266 84.7362C78.8894 83.5627 77.664 83.3392 75.0898 83.3969L73.5376 83.4323L73.2344 83.7746C72.9116 84.1393 72.856 84.5427 73.0296 85.2707C73.0785 85.4751 73.0805 85.7461 73.0337 85.8731C72.9598 86.0775 72.8743 86.1047 72.3054 86.1047C71.9507 86.1047 71.1865 86.0293 70.6074 85.937L69.5549 85.7699L68.9418 86.064L68.3288 86.358L67.1034 86.1033C65.1314 85.6931 63.4889 85.8256 61.8004 86.5312C60.337 87.1431 58.8301 88.4389 58.1174 89.6987C57.661 90.5069 57.0398 92.2877 57.2148 92.2877C57.2901 92.2877 57.619 92.0785 57.9458 91.8238C59.2614 90.7956 60.1091 90.7698 61.9652 91.6988C63.4259 92.431 64.0077 92.5634 66.1276 92.6462C67.0485 92.6822 68.0976 92.7807 68.4583 92.8656C69.957 93.2167 71.2997 94.2375 72.3162 95.7982C73.6589 97.86 75.7653 101.76 77.2761 104.982C79.5045 109.736 80.852 112.042 82.7765 114.399C85.2097 117.379 88.3447 119.449 90.8769 119.748C91.8656 119.865 93.9712 119.789 95.3756 119.585ZM74.9732 89.6064C74.0835 89.1636 73.6468 88.3357 73.9343 87.6362C74.1744 87.0535 74.5941 86.8891 75.8256 86.8966C76.7669 86.902 77.0056 86.9475 78.1977 87.3442C79.9697 87.9336 80.1359 88.1612 79.158 88.659C78.1482 89.1731 76.2616 89.8774 75.8941 89.8774C75.6873 89.8774 75.2729 89.7551 74.9732 89.6064ZM148.835 117.688C145.526 117.33 141.225 116.427 138.713 115.561C136.316 114.735 134.811 114.032 131.748 112.303C130.65 111.685 129.399 111.004 128.966 110.79C128.277 110.449 127.959 110.179 126.414 108.618C125.443 107.637 124.603 106.749 124.546 106.645C124.451 106.469 124.536 106.451 125.777 106.378C128.573 106.215 131.926 106.43 135.797 107.022C136.373 107.109 137.481 107.249 138.258 107.331C140.068 107.523 140.817 107.689 143.015 108.388C146.05 109.352 147.455 109.66 151.25 110.195C155.75 110.83 157.377 110.941 162.137 110.938C165.687 110.936 166.779 110.895 170.559 110.625C171.479 110.559 172.537 110.521 172.909 110.54L173.587 110.574L172.781 111.226C171.63 112.157 165.895 116.266 165.58 116.386C165.434 116.442 164.879 116.562 164.345 116.653C163.811 116.744 162.783 116.933 162.06 117.072C160.528 117.369 159.275 117.497 155.899 117.703C152.902 117.887 150.64 117.882 148.835 117.688ZM149.967 105.524C143.008 104.989 140.557 104.552 137.031 103.216C135.951 102.807 132.692 101.352 130.929 100.492C130.384 100.226 129.432 99.3678 129.55 99.2496C129.585 99.2143 131.253 99.1409 133.257 99.0859C139.124 98.9263 144.636 98.5521 149.295 97.9979C150.474 97.8573 152.851 97.5979 154.576 97.422C160.21 96.8461 162.461 96.5119 167.279 95.5381C170.302 94.9275 172.715 94.3326 174.802 93.6833C175.635 93.4239 176.975 93.0293 177.779 92.8058C178.583 92.5824 180.508 91.9977 182.055 91.5073C183.602 91.0163 184.883 90.6292 184.901 90.6475C184.994 90.7392 181.989 94.9649 180.434 96.9289L179.705 97.8499L177.769 98.8306C172.975 101.257 166.496 103.531 161.473 104.549C157.321 105.39 152.998 105.756 149.967 105.524ZM143.618 93.3797C143.359 93.358 142.416 93.288 141.524 93.2242C139.569 93.0836 137.712 92.8201 136.023 92.4432C134.828 92.177 132.707 91.5406 132.443 91.3688C132.284 91.2662 134.154 89.7381 135.606 88.7853C137.004 87.8678 139.191 86.7336 140.548 86.2215C142.86 85.3509 144.841 84.8653 150.022 83.9009C154.372 83.0913 155.827 82.7389 158.67 81.805C164.798 79.792 169.401 77.5936 177.818 72.661C178.993 71.9724 181.785 70.1971 184.02 68.7165C186.256 67.2353 188.285 65.896 188.529 65.7405L188.972 65.4573V65.8512C188.972 66.0685 188.911 67.2129 188.837 68.3939C188.722 70.2011 188.643 70.775 188.336 72.0036C188.121 72.8634 187.796 73.8339 187.544 74.3616C187.181 75.1263 186.962 75.4136 186.06 76.3094C184.125 78.2327 181.961 79.9095 177.824 82.6913C176.391 83.655 174.891 84.669 174.489 84.9447C173.735 85.4629 171.025 86.9815 169.379 87.808C167.906 88.5469 166.153 89.2885 163.749 90.1891C159.352 91.836 155.672 92.7074 151.098 93.1855C149.703 93.3315 144.613 93.4633 143.618 93.3797ZM132.982 81.8981C133.935 80.9968 135.064 80.1289 136.165 79.4525C138.37 78.0983 140.266 76.7923 143.722 74.2475C145.259 73.1167 146.277 72.5965 148.931 71.5873C151.511 70.6059 153.002 69.939 155.349 68.7138C160.061 66.256 161.575 65.2427 167.336 60.689C173.189 56.0634 175.151 54.2949 181.458 47.9605C186.695 42.7018 186.941 42.4709 187 42.7589C187.034 42.9246 187.068 44.1532 187.076 45.489L187.09 47.9177L186.537 48.8094C185.861 49.8974 185.253 50.8169 183.634 53.1987C180.819 57.3395 180.238 58.1198 178.374 60.272C177.028 61.8252 173.115 65.8723 171.994 66.8706C171.539 67.2761 170.659 68.0625 170.04 68.6174C168.962 69.5831 168.384 70.0286 165.538 72.0898C161.887 74.7338 156.137 77.9665 153.369 78.9316C146.846 81.206 145.347 81.5999 141.459 82.0617C139.622 82.2798 133.566 82.6675 132.411 82.6411C132.253 82.6377 132.395 82.4529 132.982 81.8981ZM130.816 73.7571C130.426 73.6865 130.425 73.6845 130.571 73.3992C130.753 73.0468 132.956 70.4062 134.295 68.9359C135.336 67.7929 136.231 66.9548 137.244 66.1745C138.638 65.1007 144.618 60.9016 147.288 59.1215C148.865 58.0709 150.811 56.7024 151.613 56.0803C156.604 52.2126 161.32 47.4728 165.689 41.9337C166.462 40.9537 167.452 39.7042 167.888 39.1568C169.099 37.6349 170.138 36.2216 171.316 34.4931C171.904 33.6286 172.651 32.5677 172.974 32.1351C173.298 31.7032 173.855 30.9093 174.212 30.3714C174.569 29.8335 175.259 28.8433 175.746 28.171C176.529 27.0891 180.228 21.5119 180.849 20.4769C180.978 20.2609 181.128 20.0837 181.18 20.0837C181.312 20.0837 181.315 22.2135 181.183 22.947C181.041 23.7456 179.457 28.3475 179.038 29.1863C178.854 29.553 178.434 30.567 178.106 31.4397C177.214 33.8072 175.189 38.168 173.85 40.6048C169.106 49.2379 162.452 57.26 155.295 62.9723C153.584 64.3381 152.671 65.005 150.627 66.3823C146.705 69.0249 138.288 72.7541 134.484 73.5337C133.356 73.7646 131.487 73.8787 130.816 73.7571ZM128.81 66.3905C128.809 66.1976 130.079 62.9988 130.748 61.5108C132.015 58.6937 132.841 57.478 138.636 49.8981C142.729 44.545 145.67 40.0567 148.437 34.9441C151.372 29.5211 154.228 22.8247 155.78 17.7257C156.043 16.8611 156.506 15.3996 156.809 14.4773C158.405 9.62076 161.063 0.650052 161.073 0.0857491C161.079 -0.265913 161.404 0.515716 161.656 1.48907C162.034 2.94577 162.167 4.72622 162.051 6.75401C161.674 13.2943 160.935 19.2062 159.94 23.6166C158.399 30.4495 156.773 35.1879 154.147 40.5009C151.726 45.398 149.541 48.8855 146.468 52.7559C143.328 56.7113 141.513 58.4947 137.154 61.9115C134.005 64.3802 132.657 65.2848 131.224 65.8886C130.003 66.404 128.811 66.6512 128.81 66.3905Z" fill="black"/>
</svg>
