<svg width="66" height="66" viewBox="0 0 66 66" fill="none" xmlns="http://www.w3.org/2000/svg">
<mask id="mask0_18_4277" style="mask-type:luminance" maskUnits="userSpaceOnUse" x="11" y="11" width="44" height="44">
<path d="M11.0875 11.0874H54.9042V54.9041H11.0875V11.0874Z" fill="white"/>
</mask>
<g mask="url(#mask0_18_4277)">
<path d="M50.5605 45.5394C50.5605 48.3012 48.3013 50.5604 45.5396 50.5604H20.4598C17.698 50.5604 15.4388 48.3012 15.4388 45.5394V20.4597C15.4388 17.6979 17.698 15.4387 20.4598 15.4387H45.5396C48.3013 15.4387 50.5605 17.6979 50.5605 20.4597V45.5394ZM45.5396 11.0874H20.4598C15.2918 11.0874 11.0875 15.2917 11.0875 20.4597V45.5394C11.0875 50.7075 15.2918 54.9117 20.4598 54.9117H45.5396C50.7076 54.9117 54.9118 50.7075 54.9118 45.5394V20.4597C54.9118 15.2917 50.7076 11.0874 45.5396 11.0874Z" fill="#042A2B"/>
</g>
<path d="M32.9996 40.4109C28.9065 40.4109 25.5886 37.093 25.5886 32.9999C25.5886 28.9067 28.9065 25.5889 32.9996 25.5889C37.0928 25.5889 40.4106 28.9067 40.4106 32.9999C40.4106 37.093 37.0928 40.4109 32.9996 40.4109ZM32.9996 21.3643C26.5839 21.3643 21.364 26.5842 21.364 32.9999C21.364 39.4156 26.5839 44.6355 32.9996 44.6355C39.4153 44.6355 44.6353 39.4156 44.6353 32.9999C44.6353 26.5842 39.4153 21.3643 32.9996 21.3643Z" fill="#042A2B"/>
<path d="M46.2048 19.2192H43.6397C43.1492 19.2192 42.7476 19.6203 42.7476 20.1111V22.6765C42.7476 23.167 43.1492 23.5683 43.6397 23.5683H46.2048C46.6956 23.5683 47.097 23.167 47.097 22.6765V20.1111C47.097 19.6203 46.6956 19.2192 46.2048 19.2192Z" fill="#042A2B"/>
</svg>
