<svg width="63" height="62" viewBox="0 0 63 62" fill="none" xmlns="http://www.w3.org/2000/svg">
<mask id="mask0_2371_345" style="mask-type:luminance" maskUnits="userSpaceOnUse" x="11" y="10" width="41" height="42">
<path d="M11.2323 10.6704H51.814V51.2521H11.2323V10.6704Z" fill="white"/>
</mask>
<g mask="url(#mask0_2371_345)">
<path d="M47.7911 42.5789C47.7911 45.1367 45.6987 47.2292 43.1408 47.2292H19.9127C17.3548 47.2292 15.2624 45.1367 15.2624 42.5789V19.3507C15.2624 16.7929 17.3548 14.7005 19.9127 14.7005H43.1408C45.6987 14.7005 47.7911 16.7929 47.7911 19.3507V42.5789ZM43.1408 10.6704H19.9127C15.1262 10.6704 11.2323 14.5643 11.2323 19.3507V42.5789C11.2323 47.3653 15.1262 51.2592 19.9127 51.2592H43.1408C47.9273 51.2592 51.8211 47.3653 51.8211 42.5789V19.3507C51.8211 14.5643 47.9273 10.6704 43.1408 10.6704Z" fill="#BABCD5"/>
</g>
<path d="M31.5267 37.8287C27.7357 37.8287 24.6629 34.7558 24.6629 30.9648C24.6629 27.1738 27.7357 24.101 31.5267 24.101C35.3177 24.101 38.3906 27.1738 38.3906 30.9648C38.3906 34.7558 35.3177 37.8287 31.5267 37.8287ZM31.5267 20.1882C25.5847 20.1882 20.7502 25.0228 20.7502 30.9648C20.7502 36.9068 25.5847 41.7414 31.5267 41.7414C37.4688 41.7414 42.3033 36.9068 42.3033 30.9648C42.3033 25.0228 37.4688 20.1882 31.5267 20.1882Z" fill="#BABCD5"/>
<path d="M43.7569 18.2019H41.3812C40.9269 18.2019 40.5549 18.5733 40.5549 19.0279V21.4039C40.5549 21.8582 40.9269 22.2299 41.3812 22.2299H43.7569C44.2115 22.2299 44.5832 21.8582 44.5832 21.4039V19.0279C44.5832 18.5733 44.2115 18.2019 43.7569 18.2019Z" fill="#BABCD5"/>
</svg>
