<svg width="53" height="53" viewBox="0 0 53 53" fill="none" xmlns="http://www.w3.org/2000/svg">
<mask id="mask0_2371_353" style="mask-type:luminance" maskUnits="userSpaceOnUse" x="6" y="6" width="40" height="41">
<path d="M6.42038 6.68237H45.7742V46.1003H6.42038V6.68237Z" fill="white"/>
</mask>
<g mask="url(#mask0_2371_353)">
<path d="M42.5062 6.68237H9.7077C7.89428 6.68237 6.43564 8.16055 6.43564 9.95418V42.8117C6.43564 44.6251 7.91406 46.0838 9.7077 46.0838H42.4864C44.2998 46.0838 45.7582 44.6054 45.7582 42.8117V9.95443C45.778 8.16055 44.3193 6.68237 42.5062 6.68237ZM18.0848 39.1852H12.27V21.7215H18.0848V39.1852ZM15.1675 19.6124C13.3345 19.6124 11.8561 18.1342 11.8561 16.301C11.8561 14.4681 13.3345 12.9896 15.1675 12.9896C17.0007 12.9896 18.4788 14.4681 18.4788 16.301C18.4788 18.1342 17.0007 19.6124 15.1675 19.6124ZM39.9634 39.1852H34.1291L33.9911 28.8174C33.9911 28.8174 34.1291 26.0579 31.1134 26.0776C28.0977 26.0972 27.6836 28.8174 27.6836 28.8174V39.1852H21.81V21.7215H27.4473V24.1263C27.4473 24.1263 27.6836 23.3379 28.9845 22.4115C30.2854 21.4849 32.4339 21.2878 33.3605 21.3274C34.2868 21.3667 35.5482 21.209 37.6573 22.6676C39.9239 24.2247 39.9832 28.3049 39.9832 28.3049L39.9634 39.1852Z" fill="#BABCD5"/>
</g>
</svg>
