<svg width="59" height="61" viewBox="0 0 59 61" fill="none" xmlns="http://www.w3.org/2000/svg">
<mask id="mask0_18_4286" style="mask-type:luminance" maskUnits="userSpaceOnUse" x="7" y="7" width="45" height="47">
<path d="M7.13831 7.35205H51.8618V53.6669H7.13831V7.35205Z" fill="white"/>
</mask>
<g mask="url(#mask0_18_4286)">
<path d="M48.1478 7.35205H10.8742C8.81331 7.35205 7.15564 9.08886 7.15564 11.1963V49.8029C7.15564 51.9336 8.83579 53.6474 10.8742 53.6474H48.1253C50.1861 53.6474 51.8435 51.9104 51.8435 49.8029V11.1966C51.866 9.08886 50.2083 7.35205 48.1478 7.35205ZM20.3942 45.5418H13.786V25.0225H20.3942V45.5418ZM17.0789 22.5444C14.9958 22.5444 13.3157 20.8076 13.3157 18.6536C13.3157 16.5 14.9958 14.7629 17.0789 14.7629C19.1622 14.7629 20.8421 16.5 20.8421 18.6536C20.8421 20.8076 19.1622 22.5444 17.0789 22.5444ZM45.2581 45.5418H38.6277L38.4709 33.36C38.4709 33.36 38.6277 30.1176 35.2006 30.1409C31.7734 30.1638 31.3028 33.36 31.3028 33.36V45.5418H24.6277V25.0225H31.0342V27.8481C31.0342 27.8481 31.3028 26.9217 32.7812 25.8333C34.2596 24.7445 36.7012 24.513 37.7542 24.5595C38.807 24.6057 40.2404 24.4203 42.6373 26.1342C45.2131 27.9637 45.2806 32.7578 45.2806 32.7578L45.2581 45.5418Z" fill="#042A2B"/>
</g>
</svg>
