<svg width="78" height="78" viewBox="0 0 78 78" fill="none" xmlns="http://www.w3.org/2000/svg">
<rect width="78" height="77" fill="none"/>
<g clip-path="url(#clip0_10578_398)">
<path d="M64.7282 18.2871C64.7035 18.2911 64.6926 18.317 64.6668 18.318C64.4241 20.2803 64.5192 21.2884 63.5832 22.7024C63.072 23.4757 62.1271 23.8021 61.2306 23.9463C60.9672 24.0011 60.7116 24.021 60.457 24.0399C60.457 24.0618 60.457 24.0787 60.457 24.1016C60.5095 24.1125 60.5591 24.1255 60.6116 24.1335C61.4822 24.2549 62.6035 24.5942 63.2424 25.439C63.3237 25.5455 63.3969 25.659 63.4593 25.7814C64.3825 27.5726 64.4687 31.375 64.6668 34.4578C64.6886 34.4539 64.7094 34.4628 64.7282 34.4578C64.8025 33.3324 64.8828 32.1282 64.9759 30.9431C64.9957 30.6983 65.0155 30.4694 65.0383 30.2286C65.0957 29.6086 65.167 29.0503 65.2552 28.4871C65.2562 28.4801 65.2542 28.4622 65.2552 28.4553C65.2611 28.4145 65.2799 28.3737 65.2859 28.3309C65.3245 28.096 65.3334 27.8353 65.379 27.6164C65.4226 27.4024 65.482 27.2213 65.5335 27.0253C65.5355 27.0193 65.5315 27.0004 65.5335 26.9944C65.5395 26.9695 65.5583 26.9566 65.5642 26.9317C65.591 26.8362 65.5979 26.7118 65.6266 26.6213C65.7247 26.3088 65.8406 26.0252 65.9664 25.7814C66.0288 25.661 66.1041 25.5754 66.1833 25.4699C66.1853 25.4679 66.1823 25.442 66.1833 25.439C66.7479 24.6967 67.6919 24.3245 68.5051 24.1643C68.5794 24.1494 68.6497 24.1444 68.722 24.1335C68.7488 24.1305 68.7874 24.1354 68.8142 24.1335C68.8786 24.1245 68.939 24.1096 69.0004 24.1016C69.0004 24.0887 69.0004 24.0519 69.0004 24.0399C68.9519 24.0359 68.8944 24.0449 68.8459 24.0399C68.6388 24.027 68.4477 23.9812 68.2268 23.9463C67.3254 23.804 66.3567 23.4796 65.8426 22.7024C64.9016 21.2794 64.9788 20.2744 64.7282 18.2871Z" fill="#021627"/>
<path d="M36.0254 28.0921C34.7347 28.0891 33.6679 28.3548 32.6268 28.7916C31.563 29.2384 30.203 30.3072 30.2912 30.5012C30.306 30.5351 32.1177 30.0634 32.8527 29.8027C33.5857 29.5429 34.8219 29.5489 35.961 29.744C37.0149 29.9231 37.9807 30.2694 38.4958 30.5709C38.9306 30.8267 39.2694 31.2954 38.8494 31.3023C38.6602 31.3053 37.1506 30.8655 36.7534 30.8685C34.9586 30.8854 33.4223 31.7253 32.4129 32.9473C32.1356 33.2836 31.7354 33.5802 31.773 33.826C31.8096 34.0618 32.2653 34.2479 32.7517 34.4579C34.8575 35.3624 39.5517 34.6479 40.3679 33.8041C40.7146 33.4448 40.6066 32.3243 40.7859 31.3352C40.8572 30.9421 41.1742 30.7082 41.2346 30.4565C41.4337 29.6335 41.1454 29.4763 39.9538 28.9757C38.9019 28.5329 37.317 28.0951 36.0254 28.0921Z" fill="#021627"/>
<path d="M63.5212 50.7838C63.437 51.0237 63.2141 52.0546 62.6545 52.5561C62.1345 53.0219 61.4124 53.2179 61.3846 53.1781C61.1162 52.786 60.8993 52.7363 59.8374 52.9293C59.359 53.0159 58.5448 53.1761 58.1654 53.1781C57.0827 53.1841 55.8119 52.9014 54.4509 53.5821C53.0503 54.2837 52.1806 55.7306 51.6031 55.9147C49.5478 56.8143 48.7712 56.8541 43.9889 57.7805C43.768 57.8512 43.5303 57.8711 43.3074 57.9358C40.6835 58.4214 39.4601 58.309 33.0306 57.0969L28.171 56.1943C28.171 56.1943 26.6862 55.9386 25.7878 55.9774C24.8894 56.0152 24.5803 56.3506 24.5803 56.3506L23.8374 56.8481C22.9043 57.483 21.5156 58.714 21.5156 58.714C21.5156 58.714 24.4535 60.5639 26.809 61.5122C27.7748 61.9013 28.6752 62.3263 29.6875 62.6009C32.1896 63.4289 34.8026 64 37.5811 64C42.5367 64 47.1071 62.5173 51.0157 60.0504C51.297 59.923 52.0677 59.7031 52.1915 59.6156C52.765 59.2115 53.8744 59.0553 55.1324 59.0553C56.0734 59.0553 57.3106 59.1339 57.9802 58.8065C58.5992 58.504 59.045 57.677 59.8374 57.065C60.9825 56.1814 61.8799 55.3873 61.8799 54.9504C61.8799 54.5145 61.973 54.1066 61.7561 53.7692C61.7343 53.7334 62.5039 53.411 63.0874 52.8985C63.5628 52.4815 64.2859 51.7849 64.5424 51.5302C64.5424 51.5073 64.5424 51.4904 64.5424 51.4675C64.3721 51.5859 64.172 51.6993 63.861 51.9342C63.5499 52.17 63.2954 52.4278 63.2419 52.4009C63.1844 52.3711 63.333 51.969 63.4281 51.561C63.5172 51.1759 63.5371 50.9212 63.5519 50.7838C63.542 50.7809 63.5281 50.7848 63.5212 50.7838ZM57.3918 56.5675C57.8038 56.3993 58.5923 56.3705 58.7845 56.6302C58.8964 56.7805 58.3516 57.3377 57.9494 57.5945C56.9857 58.2065 56.5696 57.9079 56.6796 57.283C56.7747 56.7496 56.9807 56.7366 57.3918 56.5675Z" fill="#021627"/>
<path d="M37.5826 13C26.238 13 16.7526 20.5341 13.5007 30.8505C13.2778 31.5541 13.0114 32.2347 12.8499 32.9651C12.5161 35.0688 12.8895 36.8919 14.1812 38.3139C14.5823 38.7538 15.1093 39.1379 15.6363 39.526C16.2841 40.0036 17.0379 40.4395 17.865 40.8326C19.9025 41.8018 22.3907 42.5412 25.3871 42.9472C26.2211 43.0597 27.3375 42.991 28.1418 43.1651C28.2844 43.196 28.9055 43.8627 29.7821 43.9423C30.9252 44.0458 32.4793 44.0488 33.8373 43.9423C35.3083 43.8269 36.5732 43.599 36.8704 43.3512C37.1051 43.1562 37.3825 42.6964 37.5211 42.3561C37.5251 42.3461 37.6519 42.381 37.7688 42.4188C38.0679 42.5143 38.6097 42.7671 39.1307 42.9164C39.5012 43.0219 39.7617 42.9203 39.8736 42.8845C39.8707 42.8805 39.8766 42.8586 39.8736 42.8537C39.7261 42.8556 39.42 42.8696 39.2546 42.792L39.5636 42.7601L39.7805 42.7293C39.7201 42.7273 39.6221 42.7154 39.4091 42.6676C39.2853 42.6397 39.1644 42.5651 39.0069 42.5113C38.6503 42.3919 38.3027 42.1054 38.0471 41.9521C37.8411 41.8277 37.637 41.7988 37.6449 41.765C37.8312 40.8903 37.7202 40.0633 37.3973 39.9927C36.907 39.8852 35.5648 39.6185 34.7655 39.1847C33.8849 38.706 32.1881 37.9467 30.8033 38.0333C29.0749 38.1428 28.2933 38.8433 27.0274 38.8115C25.7615 38.7787 24.1301 38.6284 23.2505 38.4383C21.4933 38.0562 19.4736 36.5366 19.01 35.3286C18.3444 33.5911 19.01 31.8138 19.01 31.8138C19.01 31.8138 19.4865 33.408 20.0006 34.3334C20.9396 36.0212 21.8123 36.3247 24.0865 37.1009C25.2851 37.5099 26.8729 37.5357 26.8729 37.5357C26.8729 37.5357 25.3326 36.2112 24.458 34.426C23.1861 31.8307 23.1465 30.7798 23.4367 29.4504C23.9964 26.8899 26.2677 24.6509 27.6465 23.822C28.9708 23.0268 29.2442 22.1511 36.0968 21.4894C41.0296 21.0137 45.4137 22.4467 47.6117 21.5829C49.8107 20.7192 49.3452 18.1936 49.3452 18.1936C49.3452 18.1936 50.0692 19.1449 50.4902 20.4017C50.9171 21.6715 51.1192 23.1642 51.2024 23.6976C51.4609 25.3614 51.4461 26.8372 51.4193 27.8333C51.3817 29.2424 51.1261 30.0803 50.6764 30.135C49.9197 30.2266 48.4844 30.4803 47.7355 30.8505C47.1917 31.1192 46.3111 31.2953 46.0021 31.8138C45.3444 32.9194 45.4266 35.2878 46.3736 38.3448C46.9015 40.0484 47.5642 40.8565 47.2403 42.17C47.0045 43.1263 45.804 44.004 44.4232 44.004C43.8655 44.004 43.0721 43.9453 43.0305 44.1284C43.0028 44.2528 43.7031 44.416 43.9279 44.6887C44.7917 45.7336 43.8992 46.4311 42.04 46.057C41.201 45.8878 39.9044 45.9943 39.9044 45.9943C39.9044 45.9943 39.0723 46.5555 38.0164 47.0829C37.0457 47.5676 35.5609 47.9487 35.2924 48.0164C35.2895 48.0452 35.2657 48.081 35.2607 48.1089C35.4133 48.1477 36.4325 48.4224 38.3255 48.7C39.5339 48.8771 41.3307 48.6463 42.3183 48.7309C42.9869 48.7886 42.9968 49.4961 42.876 50.1619C42.7551 50.8276 42.2985 51.4804 41.3278 51.7481C41.0475 51.8247 40.3085 51.76 40.152 51.7481C40.153 51.7929 40.152 51.8356 40.152 51.8725C40.2936 51.961 40.9216 52.3302 41.2663 52.992C41.6418 53.7134 41.7616 54.1354 41.4833 55.0131C41.3545 55.4161 40.7711 56.2261 40.7711 56.2261C40.7711 56.2261 42.3728 56.45 44.2687 56.2261C46.329 55.9823 48.1753 55.3723 49.8097 54.4219C50.0524 54.2806 50.2584 54.0806 50.4902 53.9244C50.6982 53.7473 50.9379 53.6089 51.141 53.4268C51.453 53.189 51.8076 53.0099 52.0998 52.7432C52.8061 52.0984 53.4579 51.3739 54.0502 50.5659C54.0938 50.5071 54.1631 50.4693 54.2047 50.4106C54.2176 50.3927 54.2235 50.3658 54.2364 50.3479C55.012 49.2463 55.6826 48.0134 56.2482 46.6162C58.154 41.9103 58.4165 37.1307 57.1149 32.4984C57.0743 32.3542 57.0664 32.2069 57.0218 32.0626C56.4265 30.0972 56.0065 27.6183 56.0937 26.5585L56.1551 25.657C58.6899 29.3001 60.2113 33.7174 60.2103 38.5C60.2103 42.6815 59.0009 46.5595 57.0218 49.9131C56.7326 50.4027 56.48 50.9102 56.1551 51.3749C56.1412 51.4097 56.0005 51.6068 56.0005 51.6237C56.0005 51.7799 56.6791 51.9033 57.4864 51.9033C58.3075 51.9033 59.0494 51.4137 59.7458 50.7211C62.6698 47.8193 64.2923 39.7151 62.7481 32.8716C61.2484 26.2202 57.5042 20.8107 51.8839 17.1984C50.3198 16.1934 48.9063 15.5097 47.4572 14.9902C46.9649 14.7813 46.4181 14.7017 45.909 14.5235C43.2861 13.6021 40.5185 13 37.5826 13ZM31.2986 40.1798C31.6899 39.7867 33.6511 40.3878 33.6511 40.9261C33.6511 41.57 31.6403 41.5192 31.2372 40.8634C31.0569 40.5699 31.156 40.3231 31.2986 40.1798Z" fill="#021627"/>
<path d="M18.6512 43.1433C18.6512 43.1433 17.62 47.287 17.629 48.6354C17.6369 49.9838 17.5626 51.7611 19.6922 51.4994C20.1657 51.4406 21.0126 51.3242 21.9962 50.9132C22.5113 50.6983 22.7956 50.4376 23.5137 50.0853C25.3482 49.1857 25.4522 48.9339 25.8791 46.9238C26.1465 45.663 26.3229 44.3494 26.3229 44.3494C26.3229 44.3494 24.5092 44.2668 22.5658 43.9703C20.6223 43.6747 18.6512 43.1433 18.6512 43.1433Z" fill="#021627"/>
<path d="M11.8585 38.5C11.8585 38.5 10.0379 44.8539 10.0012 48.6383C9.95567 53.5194 11.1651 55.9535 14.3972 57.47C16.4763 58.4452 18.4594 58.4452 20.7426 57.47C21.3983 57.1894 22.0709 56.859 22.786 56.4122C23.2694 56.1097 24.6869 54.9156 25.4476 54.8578C25.9013 54.823 26.4273 54.7862 26.872 54.8578C27.6555 54.9822 28.2498 55.3942 29.1314 55.4479C30.954 55.5604 32.207 55.4499 32.9697 55.2619C33.2065 55.2031 33.4412 54.9872 33.6195 54.7016C33.6304 54.6857 33.779 54.6528 33.9603 54.7016C34.2455 54.7792 34.6725 55.1733 35.136 55.3235C35.6283 55.4838 36.182 55.4121 36.5604 55.4479C36.5604 55.435 36.5604 55.425 36.5604 55.4171C36.4891 55.3912 36.0652 55.2927 36.0652 55.2927C36.0652 55.2927 36.4307 55.23 36.5604 55.1991C36.496 55.1812 36.0047 55.239 35.3223 55.0131C34.9627 54.8937 34.7111 54.4936 34.3624 54.2976C34.0138 54.1015 33.8612 54.1921 33.8672 54.1732C33.9771 53.8428 34.0316 53.4696 33.991 53.1472C33.9355 52.7084 32.6547 52.2964 31.8554 51.6545C31.056 51.0117 31.3383 50.9181 30.8025 50.5659C30.01 50.0444 28.755 49.7578 28.1409 49.7578C27.3138 49.7578 26.6155 49.6782 25.0762 50.5042C24.576 50.7719 23.2615 51.9272 22.8168 52.1212C22.0511 52.4546 20.8595 52.7243 20.2473 52.8357C18.9042 53.0815 17.7621 52.9004 16.8736 51.9033C16.1089 51.0445 15.9533 48.1776 16.3476 45.8699C16.7408 43.5622 17.1212 42.6357 17.1212 42.6357C17.1212 42.6357 16.0385 42.2875 14.5517 41.3302C13.065 40.3718 11.8585 38.5 11.8585 38.5ZM28.3578 51.4993C28.9234 51.6575 29.4623 52.4138 29.4405 52.5253C29.388 52.8039 28.6282 52.7741 28.234 52.7741C27.4406 52.7741 26.8076 52.0615 27.2435 51.6237C27.4356 51.4296 27.8556 51.358 28.3578 51.4993Z" fill="#021627"/>
</g>
<defs>
<clipPath id="clip0_10578_398">
<rect width="59" height="51" fill="white" transform="translate(10 13)"/>
</clipPath>
</defs>
</svg>
