<svg width="158" height="240" viewBox="0 0 158 240" fill="none" xmlns="http://www.w3.org/2000/svg">
<path d="M94.945 145.786C93.2864 145.446 90.5833 147.101 88.8665 148.391C87.5402 149.388 87.0091 149.872 86.9885 150.512C86.9679 151.151 87.7925 151.791 88.4053 152.505C91.5384 156.158 92.8106 158.723 93.9304 161.752C95.0502 164.782 95.3061 168.221 95.2273 170.018C95.1485 171.815 95.2061 172.221 94.7832 174.541C94.4609 176.171 93.9445 177.715 93.3293 179.206H104.254C104.707 177.443 105.137 175.651 105.364 173.673C105.574 171.846 105.832 169.96 105.708 167.938C105.06 157.445 96.6012 146.129 94.945 145.786Z" fill="url(#paint0_linear_67_93)"/>
<path d="M92.63 104.729C93.4722 106.402 94.355 110.353 94.358 110.353C94.5456 111.257 94.725 112.599 94.725 113.514C94.7256 114.219 94.7462 116.248 94.3139 118.147C93.8816 120.047 93.0805 122.574 90.5897 125.351C88.0871 128.141 84.8435 130.264 80.7382 133.034C76.6335 135.803 74.1451 137.735 71.4749 139.65C68.8053 141.565 65.5681 144.392 62.7814 147.866C59.9948 151.34 55.3119 157.385 55.0067 165.694C54.702 174.003 56.6976 179.203 56.6976 179.203H67.7989C67.7989 179.203 66.4868 175.426 66.108 171.428C65.7298 167.431 67.1214 163 67.9642 161.173C68.8076 159.346 70.675 156.791 71.9895 155.107C73.304 153.424 75.9448 150.978 82.1351 146.249C88.3253 141.519 92.9858 138.127 95.6443 135.607C98.3027 133.086 105.828 126.353 105.827 113.588C105.827 110.486 104.902 107.516 104.194 104.706L92.63 104.729Z" fill="url(#paint1_linear_67_93)"/>
<path d="M56.473 104.635C55.5137 107.426 55.0073 110.486 55.0067 113.588C55.0067 122.439 63.189 133.242 65.0788 133.787C66.8756 134.306 71.8078 130.192 72.4494 128.494C72.59 128.048 72.5183 127.733 72.4859 127.593C72.4536 127.453 72.3424 127.01 71.0338 125.057C69.7257 123.104 69.7734 123.096 69.0858 122.006C67.5896 119.484 66.1457 116.545 66.1451 113.588C66.1451 110.316 66.9208 107.277 68.2036 104.729L56.473 104.635Z" fill="url(#paint2_linear_67_93)"/>
<path d="M70.0345 123.634C71.3426 125.586 71.9689 126.499 72.1472 127.114C73.1211 127.088 74.8985 127.151 76.6865 127.134C78.4745 127.117 80.5483 127.171 81.6269 126.466C82.705 125.761 84.0825 123.985 84.0825 123.985C84.0825 123.985 85.854 121.386 85.1064 120.829C84.7324 120.55 82.5503 120.614 81.5022 120.591C80.4542 120.568 77.1629 120.568 74.408 120.568C71.7378 120.568 70.6533 120.568 68.1519 120.568C68.84 121.658 68.7265 121.681 70.0345 123.634Z" fill="url(#paint3_linear_67_93)"/>
<path d="M66.2327 163.544L83.2402 163.638C88.9782 163.638 90.2916 163.752 91.0656 163.194C91.839 162.637 91.5149 161.771 90.7915 160.387C90.0681 159.001 89.4135 158.387 88.5559 157.769C87.6972 157.15 86.3527 157.094 85.5217 157.093C84.8812 157.093 69.3952 157.182 69.3952 157.182C69.3952 157.182 67.8507 158.884 66.9544 161.393" fill="url(#paint4_linear_67_93)"/>
<path d="M98.6626 171.121C98.7344 169.486 98.5468 168.621 98.555 168.705C97.9621 168.705 90.4291 168.705 84.39 168.705C81.2528 168.705 74.8679 168.629 73.6569 168.665C72.4447 168.701 71.9165 168.817 71.4872 169.099C70.6279 169.665 70.5567 170.534 70.8161 171.894C71.0761 173.252 71.299 174.036 72.5382 174.75C73.7774 175.464 76.5129 175.308 77.4363 175.308C78.3144 175.308 96.8311 175.249 98.2686 175.249C98.6538 173.138 98.5909 172.758 98.6626 171.121Z" fill="url(#paint5_linear_67_93)"/>
<path d="M94.4692 109.296C93.7552 109.296 77.8146 109.267 77.027 109.267C76.623 109.267 75.929 109.258 75.2026 109.341C74.4786 109.425 73.7116 109.603 73.1729 109.954C72.0872 110.662 71.5908 112.666 71.5908 112.666C71.5908 112.666 71.0985 114.892 71.8513 115.452C72.6041 116.012 73.6616 115.824 79.2426 115.824C84.8241 115.824 94.5809 115.806 94.9691 115.806C95.1497 114.719 95.0438 113.101 94.9938 112.397C94.9103 111.217 94.6568 110.2 94.4692 109.296Z" fill="url(#paint6_linear_67_93)"/>
<path d="M135.195 191.205C136.395 190.932 136.821 190.533 138.664 190.245C144.285 189.365 145.822 196.221 140.158 201.846C137.742 204.246 135.414 205.411 130.597 205.662C128.707 209.024 124.461 214.898 124.794 214.5C135.216 216.654 142.916 213.285 149.412 204.291C152.261 200.346 153.739 194.437 152.491 190.083C151.376 186.199 148.67 182.864 144.44 181.354C143.217 180.916 141.31 180.818 139.459 180.912C138.202 180.976 137.268 181.188 136.298 181.372C136.302 181.094 135.029 191.987 135.195 191.205Z" fill="#EFB201" stroke="#EDB100" stroke-width="0.01" stroke-miterlimit="10" stroke-linejoin="round"/>
<path d="M21.7574 178.45C21.3616 178.455 21.0058 178.629 20.7464 178.892C20.4947 179.154 20.3235 179.509 20.3235 179.903C20.3235 179.908 20.3235 179.915 20.3235 179.921C20.3029 180.271 20.287 180.444 20.287 180.711C20.287 188.24 21.9268 195.401 24.8817 201.921C25.8674 204.093 26.9967 206.189 28.2635 208.207C28.2665 208.212 28.2606 208.221 28.2635 208.225C29.5286 210.239 30.932 212.158 32.4541 213.997C32.4576 214.001 32.4512 214.011 32.4541 214.015C33.8027 215.645 35.2766 217.17 36.8099 218.647C37.3857 219.2 37.9933 219.716 38.5932 220.246C39.5913 221.129 40.6182 221.983 41.681 222.8C42.3891 223.344 43.0955 223.887 43.8313 224.4C45.2622 225.399 46.7514 226.335 48.2789 227.212C48.5923 227.391 48.8811 227.607 49.1981 227.781V227.8L48.4077 235.85C48.4077 235.85 48.1065 238.341 48.61 238.791C49.1134 239.24 52.837 239.085 52.837 239.085H78.8814H104.907C104.907 239.085 108.608 239.234 109.134 238.791C109.638 238.341 109.336 235.85 109.336 235.85L108.546 227.8V227.781C110.502 226.706 112.368 225.489 114.17 224.216C114.669 223.863 115.154 223.499 115.641 223.132C116.983 222.119 118.259 221.049 119.5 219.933C119.91 219.565 120.334 219.21 120.732 218.83C124.715 215.034 128.044 210.673 130.712 205.928C131.455 204.607 132.235 203.305 132.862 201.921C133.74 199.987 134.45 197.97 135.086 195.93C135.316 195.186 135.496 194.425 135.693 193.669C136.785 189.506 137.458 185.19 137.457 180.711C137.457 180.444 137.437 180.183 137.421 179.921C137.421 179.915 137.42 179.908 137.421 179.903C137.421 179.103 136.768 178.45 135.968 178.45H117.89H107.314H103.014H65.6663H61.9169H54.4362H23.9259H21.7574Z" fill="#EFB201" stroke="#EDB100" stroke-width="0.01" stroke-miterlimit="10" stroke-linejoin="round"/>
<path d="M92.9035 0C76.0801 0 61.7369 10.4867 55.9783 25.2734C53.3081 24.2165 50.4091 23.5989 47.3625 23.5989C34.4026 23.5989 23.9112 34.1068 23.9112 47.0672C23.9112 48.8987 24.1706 50.6567 24.5676 52.3676C10.8284 53.424 0 64.8946 0 78.9044C0 93.6104 11.913 105.523 26.6191 105.523H128.515C144.661 105.523 157.744 92.4406 157.744 76.2953C157.744 61.2616 146.395 48.8982 131.798 47.2637C132.28 44.7935 132.553 42.2444 132.553 39.633C132.553 17.7362 114.8 0 92.9035 0Z" fill="#00B2C0" stroke="#00B2C0" stroke-width="0.01" stroke-miterlimit="10" stroke-linejoin="round"/>
<defs>
<linearGradient id="paint0_linear_67_93" x1="79.8613" y1="104.485" x2="80.5069" y2="178.923" gradientUnits="userSpaceOnUse">
<stop stop-color="#00B1C5"/>
<stop offset="1" stop-color="#EDB100"/>
</linearGradient>
<linearGradient id="paint1_linear_67_93" x1="80.7729" y1="104.623" x2="81.1424" y2="178.636" gradientUnits="userSpaceOnUse">
<stop stop-color="#00B1C5"/>
<stop offset="1" stop-color="#EDB100"/>
</linearGradient>
<linearGradient id="paint2_linear_67_93" x1="80.5953" y1="104.905" x2="81.0084" y2="178.9" gradientUnits="userSpaceOnUse">
<stop stop-color="#00B1C5"/>
<stop offset="1" stop-color="#EDB100"/>
</linearGradient>
<linearGradient id="paint3_linear_67_93" x1="80.8947" y1="104.131" x2="81.463" y2="178.626" gradientUnits="userSpaceOnUse">
<stop stop-color="#00B1C5"/>
<stop offset="1" stop-color="#EDB100"/>
</linearGradient>
<linearGradient id="paint4_linear_67_93" x1="79.5625" y1="104.515" x2="80.1633" y2="179.429" gradientUnits="userSpaceOnUse">
<stop stop-color="#00B1C5"/>
<stop offset="1" stop-color="#EDB100"/>
</linearGradient>
<linearGradient id="paint5_linear_67_93" x1="81.0499" y1="105.319" x2="80.6116" y2="179.86" gradientUnits="userSpaceOnUse">
<stop stop-color="#00B1C5"/>
<stop offset="1" stop-color="#EDB100"/>
</linearGradient>
<linearGradient id="paint6_linear_67_93" x1="81.494" y1="104.781" x2="81.854" y2="178.476" gradientUnits="userSpaceOnUse">
<stop stop-color="#00B1C5"/>
<stop offset="1" stop-color="#EDB100"/>
</linearGradient>
</defs>
</svg>
