<?xml version="1.0" encoding="UTF-8"?>
<svg id="Design_Layer" data-name="Design Layer" xmlns="http://www.w3.org/2000/svg" viewBox="0 0 230 230">
  <defs>
    <filter id="gray">
      <feColorMatrix type="matrix" values="0.3333 0.3333 0.3333 0 0
                                           0.3333 0.3333 0.3333 0 0
                                           0.3333 0.3333 0.3333 0 0
                                           0      0      0      1 0"/>
    </filter>
    <style>
      .cls-1 { fill: #f55f73; }
      .cls-2 { fill: #f6e58c; }
      .cls-3 { fill: #ecbf4e; }
      .cls-4 { fill: #f1d370; }
      .cls-5 { fill: #ffefbe; }
      .cls-6 { fill: #e19900; }
      .cls-7 { font-size: 23px; fill: #fff; font-family: Inter, Inter; }
      .cls-8 { font-size: 22px; fill: #fff; font-family: Inter, Inter; }
    </style>
  </defs>

  <g filter="url(#gray)">
    <g>
      <path class="cls-5" d="m115,221.38c-2.45,0-4.87-.65-7-1.88l-80-46.19c-4.32-2.49-7-7.14-7-12.12v-92.38c0-4.99,2.68-9.63,7-12.12L108,10.5c2.13-1.23,4.55-1.88,7-1.88s4.87.65,7,1.88l80,46.19c4.32,2.49,7,7.14,7,12.12v92.38c0,4.99-2.68,9.63-7,12.12l-80,46.19c-2.13,1.23-4.55,1.88-7,1.88Z"/>
      <path class="cls-4" d="m115,14.62c1.4,0,2.79.37,4,1.07l80,46.19c2.47,1.42,4,4.08,4,6.93v92.38c0,2.85-1.53,5.5-4,6.93l-80,46.19c-1.21.7-2.6,1.07-4,1.07s-2.79-.37-4-1.07l-80-46.19c-2.47-1.42-4-4.08-4-6.93v-92.38c0-2.85,1.53-5.5,4-6.93L111,15.7c1.21-.7,2.6-1.07,4-1.07m0-12c-3.45,0-6.91.89-10,2.68L25,51.49c-6.19,3.57-10,10.18-10,17.32v92.38c0,7.15,3.81,13.75,10,17.32l80,46.19c3.09,1.79,6.55,2.68,10,2.68s6.91-.89,10-2.68l80-46.19c6.19-3.57,10-10.18,10-17.32v-92.38c0-7.15-3.81-13.75-10-17.32L125,5.3c-3.09-1.79-6.55-2.68-10-2.68h0Z"/>
    </g>
    <g>
      <path class="cls-6" d="m186.7,81.9v80.64c0,1.66-1.29,3-2.88,3H46.18c-1.59,0-2.88-1.34-2.88-3v-95.08c0-1.66,1.29-3,2.88-3h44.27c.84,0,1.64.38,2.19,1.05l10.1,12.34c.55.67,1.35,1.05,2.19,1.05h78.9c1.59,0,2.88,1.34,2.88,3Z"/>
      <path class="cls-2" d="m43.3,78.9h140.4c1.66,0,3,1.34,3,3v80.64c0,1.66-1.34,3-3,3H46.48c-1.75,0-3.18-1.42-3.18-3.18v-83.46h0Z"/>
      <path class="cls-3" d="m183.77,78.9c1.62,0,2.93,1.31,2.93,2.93v80.71c0,1.66-1.29,3-2.88,3H46.18c-1.59,0-2.88-1.34-2.88-3v-.08c53.55-10.64,82.62-23.37,105.47-43.57l3.22,3.36-15.5,16.17c-1.09,1.14-1.38,3.23-.5,4.56.68,1.02,1.72,1.53,2.77,1.53.86,0,1.72-.34,2.37-1.02l17.98-18.75c1.31-1.36,1.31-3.6,0-4.96l-5.29-5.52c10.64-10.22,29.96-35.35,29.96-35.35h0Z"/>
      <path class="cls-1" d="m90.81,144c-.74,0-1.47-.29-2.03-.88l-17.98-18.75c-1.12-1.17-1.12-3.07,0-4.24l17.98-18.75c1.12-1.17,2.94-1.17,4.07,0,1.12,1.17,1.12,3.07,0,4.24l-15.94,16.63,15.94,16.63c1.12,1.17,1.12,3.07,0,4.24-.56.59-1.3.88-2.03.88Z"/>
      <path class="cls-1" d="m102.8,144c-.55,0-1.1-.16-1.59-.5-1.32-.92-1.68-2.78-.8-4.16l23.97-37.5c.88-1.38,2.66-1.75,3.99-.83,1.32.92,1.68,2.78.8,4.16l-23.97,37.5c-.55.87-1.47,1.34-2.4,1.34Z"/>
      <g>
        <path class="cls-1" d="m159.1,124.73l-17.98,18.75c-.65.68-1.51,1.02-2.37,1.02s-1.72-.34-2.37-1.02c-1.31-1.37-1.31-3.59,0-4.96l15.6-16.27-3.22-3.36c1.72-1.51,3.39-3.06,5.04-4.64l5.29,5.52c1.31,1.37,1.31,3.59,0,4.96Z"/>
        <path class="cls-1" d="m153.81,114.25c-1.65,1.58-3.33,3.13-5.04,4.64l-12.38-12.91c-1.31-1.37-1.31-3.59,0-4.96,1.3-1.36,3.43-1.36,4.74,0l12.69,13.23Z"/>
      </g>
    </g>
    <g transform="translate(1330, 9140)"> <text class="cls-7" transform="rotate(38.31)"><tspan x="0" y="0">C</tspan></text>
       </g>
  </g>
</svg>
