<svg viewBox="0 0 181.52 182.4" xmlns="http://www.w3.org/2000/svg" class="text-(--villageColor) size-6" style="--villageColor: #959595; --villageColorLight: #95959533; --villageColorMedium: #95959566;"><g fill="#797979"><path d="m179.9 74.13c-22.65-8.64-49.78-2.88-66.79 14.55-26.39 25.5-24.04 71.03 4.78 93.72 43.71-15.3 70.72-64.25 62.01-108.27z"></path><path d="m149.82 63.63c4.22-.48 8.57-.6 12.83-.28-4.55-13.07-12.58-25.17-23.16-34.6-1.37 3.75-3.66 7.35-6.75 10.23 7.46 6.95 13.28 15.48 17.08 24.65z"></path><path d="m83.7 162.57c-13.57 0-26.55-3.77-37.77-10.78 14.05 4.08 30.12 2.9 43.33-3.18-.86-3.91-1.4-7.91-1.59-11.98-14.72 8.12-34.19 8.11-48.91-.02 27.55 4.92 54.07-17.58 53.65-45.57.42-27.99-26.1-50.5-53.65-45.57 29.63-16.03 66.96.66 74.74 33.43 3.15-2.57 6.5-4.84 10-6.8 0 0 0 0 0-.01-7.13-23.84-29.97-42.21-54.82-43.98-7.63-.67-15.52.1-22.77 2.17 12.25-7.68 26.91-11.49 41.65-10.67-.02-4.09.9-8.18 2.74-11.92-24.41-2-48.47 6.86-65.74 24.21-57.76 59.16-5.95 156.23 75.33 141.2-2.45-3.55-4.55-7.31-6.29-11.22-3.26.45-6.57.69-9.91.69zm-37.2-107.36c19.79 0 35.83 16.04 35.83 35.83s-16.04 35.83-35.83 35.83c-47.52-1.89-47.51-69.77 0-71.65z"></path><path d="m128.08 33.23c7.57-7.57 7.57-19.89 0-27.46-18.97-17.46-44.91 8.5-27.46 27.46 7.57 7.57 19.89 7.57 27.46 0z"></path><path d="m55.78 101.82 6.12-3.35c5.67-2.94 5.67-11.5 0-14.44 0 0-6.12-3.35-6.12-3.35-2.56-1.4-4.65-3.49-6.05-6.05l-3.35-6.12c-1.47-2.68-4.17-4.28-7.22-4.28s-5.75 1.6-7.22 4.28l-3.35 6.13c-1.4 2.56-3.5 4.65-6.05 6.05l-6.12 3.35c-5.67 2.94-5.67 11.5 0 14.44l6.12 3.35c2.56 1.4 4.65 3.49 6.05 6.05l3.35 6.13c2.94 5.67 11.5 5.67 14.44 0l3.35-6.12c1.4-2.56 3.49-4.65 6.05-6.05z"></path></g></svg>
