<svg width="66" height="66" viewBox="0 0 66 66" fill="none" xmlns="http://www.w3.org/2000/svg">
<mask id="mask0_18_4388" style="mask-type:luminance" maskUnits="userSpaceOnUse" x="12" y="17" width="42" height="18">
<path d="M12.0806 17.4664H53.473V34.297H12.0806V17.4664Z" fill="white"/>
</mask>
<g mask="url(#mask0_18_4388)">
<path d="M30.0487 33.2867C30.1485 33.3632 30.2511 33.4357 30.3568 33.5038C30.4626 33.5719 30.5708 33.6356 30.6815 33.695C30.7925 33.7541 30.9057 33.8088 31.021 33.8589C31.1361 33.9089 31.2533 33.954 31.3724 33.9944C31.4915 34.0349 31.6121 34.0703 31.734 34.1011C31.8559 34.1316 31.979 34.1571 32.1028 34.1776C32.2268 34.1981 32.3515 34.2133 32.4768 34.2236C32.6022 34.2339 32.7278 34.2391 32.8534 34.2391C32.979 34.2391 33.1046 34.2339 33.2299 34.2236C33.3553 34.2133 33.4799 34.1981 33.604 34.1776C33.7281 34.1571 33.8509 34.1316 33.9731 34.1011C34.095 34.0703 34.2153 34.0349 34.3344 33.9944C34.4535 33.954 34.5707 33.9089 34.6861 33.8589C34.8014 33.8088 34.9143 33.7541 35.0253 33.695C35.1363 33.6356 35.2445 33.5719 35.3499 33.5038C35.4557 33.4357 35.5583 33.3632 35.6581 33.2867L53.4576 19.4178C53.3522 19.268 53.2384 19.1246 53.1159 18.9881C52.9933 18.8516 52.8634 18.7229 52.7253 18.6022C52.5876 18.4813 52.443 18.369 52.2916 18.2658C52.1401 18.1623 51.9831 18.068 51.8205 17.9835C51.6579 17.8989 51.4906 17.8243 51.3189 17.7599C51.1473 17.6952 50.9725 17.6411 50.7944 17.5976C50.6162 17.5541 50.4362 17.5214 50.2543 17.4993C50.0721 17.4776 49.8895 17.4664 49.7061 17.4664H16.0069C15.8126 17.467 15.6192 17.4797 15.4267 17.5046C15.2342 17.5295 15.0439 17.5668 14.8561 17.6159C14.6683 17.6651 14.4846 17.726 14.3045 17.7985C14.1242 17.8712 13.9494 17.9549 13.78 18.0494C13.6105 18.1442 13.4479 18.2493 13.2918 18.365C13.1357 18.4803 12.9874 18.6053 12.8471 18.7394C12.7069 18.8737 12.576 19.0164 12.4538 19.1672C12.3316 19.3183 12.2197 19.4763 12.1177 19.6417L30.0487 33.2867Z" fill="#3C7D62"/>
</g>
<mask id="mask1_18_4388" style="mask-type:luminance" maskUnits="userSpaceOnUse" x="11" y="22" width="44" height="27">
<path d="M11.395 22.5956H54.3198V48.0928H11.395V22.5956Z" fill="white"/>
</mask>
<g mask="url(#mask1_18_4388)">
<path d="M37.5347 35.7146C37.3687 35.842 37.1976 35.9627 37.0216 36.0762C36.8457 36.1897 36.6653 36.296 36.4806 36.3946C36.2959 36.4935 36.1075 36.5846 35.9153 36.6679C35.7232 36.7512 35.5282 36.8265 35.3298 36.8939C35.1314 36.9611 34.9309 37.0205 34.7275 37.0712C34.5245 37.1222 34.3196 37.1648 34.1128 37.199C33.9063 37.2329 33.6986 37.2587 33.49 37.2758C33.2813 37.2929 33.0721 37.3013 32.8628 37.3013C32.6532 37.3013 32.4443 37.2929 32.2356 37.2758C32.0267 37.2587 31.819 37.2329 31.6125 37.199C31.4057 37.1648 31.2008 37.1222 30.9978 37.0712C30.7947 37.0205 30.5939 36.9611 30.3958 36.8939C30.1974 36.8265 30.0022 36.7512 29.81 36.6679C29.6178 36.5846 29.4294 36.4935 29.2447 36.3946C29.0603 36.296 28.88 36.1897 28.704 36.0762C28.528 35.9627 28.357 35.842 28.1906 35.7146L11.4116 22.9548V43.5067C11.4116 43.6572 11.4191 43.8074 11.4337 43.9573C11.4483 44.1072 11.4704 44.2558 11.4999 44.4035C11.5292 44.5509 11.5658 44.6967 11.6094 44.8407C11.6532 44.9849 11.7039 45.1264 11.7614 45.2654C11.819 45.4044 11.8833 45.5403 11.9542 45.6731C12.0251 45.8058 12.1025 45.9349 12.1859 46.0599C12.2695 46.1852 12.3591 46.3058 12.4545 46.4221C12.5503 46.5384 12.651 46.6497 12.7574 46.7564C12.864 46.8627 12.9753 46.9638 13.0916 47.0592C13.2079 47.1547 13.3289 47.2442 13.4539 47.3279C13.5789 47.4112 13.7079 47.4886 13.8407 47.5595C13.9735 47.6304 14.1093 47.6948 14.2483 47.7523C14.3873 47.8098 14.5288 47.8605 14.6731 47.9044C14.817 47.9479 14.9629 47.9846 15.1103 48.0138C15.258 48.0434 15.4066 48.0654 15.5565 48.08C15.7063 48.095 15.8565 48.1021 16.007 48.1021H49.7062C49.8567 48.1021 50.0069 48.095 50.1567 48.08C50.3066 48.0654 50.4552 48.0434 50.6026 48.0138C50.7503 47.9846 50.8961 47.9479 51.0401 47.9044C51.1844 47.8605 51.3259 47.8098 51.4649 47.7523C51.6038 47.6948 51.7397 47.6304 51.8725 47.5595C52.0053 47.4886 52.1343 47.4112 52.2593 47.3279C52.3843 47.2442 52.5053 47.1547 52.6216 47.0592C52.7378 46.9638 52.8492 46.8627 52.9558 46.7564C53.0622 46.6497 53.1629 46.5384 53.2587 46.4221C53.3541 46.3058 53.4437 46.1852 53.527 46.0599C53.6107 45.9349 53.6881 45.8058 53.759 45.6731C53.8299 45.5403 53.8942 45.4044 53.9518 45.2654C54.0093 45.1264 54.06 44.9849 54.1038 44.8407C54.1473 44.6967 54.184 44.5509 54.2133 44.4035C54.2428 44.2558 54.2649 44.1072 54.2795 43.9573C54.2941 43.8074 54.3016 43.6572 54.3016 43.5067V22.6516L37.5347 35.7146Z" fill="#3C7D62"/>
</g>
</svg>
