<svg width="41" height="42" viewBox="0 0 41 42" fill="none" xmlns="http://www.w3.org/2000/svg">
<mask id="mask0_106_3" style="mask-type:luminance" maskUnits="userSpaceOnUse" x="0" y="0" width="41" height="42">
<path d="M0.412109 0.814941H40.9938V41.3967H0.412109V0.814941Z" fill="white"/>
</mask>
<g mask="url(#mask0_106_3)">
<path d="M36.9709 32.7234C36.9709 35.2813 34.8784 37.3737 32.3206 37.3737H9.09244C6.53457 37.3737 4.44216 35.2813 4.44216 32.7234V9.49527C4.44216 6.9374 6.53457 4.84499 9.09244 4.84499H32.3206C34.8784 4.84499 36.9709 6.9374 36.9709 9.49527V32.7234ZM32.3206 0.814941H9.09244C4.30597 0.814941 0.412109 4.7088 0.412109 9.49527V32.7234C0.412109 37.5099 4.30597 41.4037 9.09244 41.4037H32.3206C37.107 41.4037 41.0009 37.5099 41.0009 32.7234V9.49527C41.0009 4.7088 37.107 0.814941 32.3206 0.814941Z" fill="#3C7D62"/>
</g>
<path d="M20.7063 27.9732C16.9153 27.9732 13.8424 24.9003 13.8424 21.1093C13.8424 17.3184 16.9153 14.2455 20.7063 14.2455C24.4972 14.2455 27.5701 17.3184 27.5701 21.1093C27.5701 24.9003 24.4972 27.9732 20.7063 27.9732ZM20.7063 10.3328C14.7642 10.3328 9.92969 15.1673 9.92969 21.1093C9.92969 27.0514 14.7642 31.8859 20.7063 31.8859C26.6483 31.8859 31.4828 27.0514 31.4828 21.1093C31.4828 15.1673 26.6483 10.3328 20.7063 10.3328Z" fill="#3C7D62"/>
<path d="M32.9364 8.3465H30.5607C30.1064 8.3465 29.7344 8.71793 29.7344 9.17249V11.5485C29.7344 12.0028 30.1064 12.3745 30.5607 12.3745H32.9364C33.3909 12.3745 33.7627 12.0028 33.7627 11.5485V9.17249C33.7627 8.71793 33.3909 8.3465 32.9364 8.3465Z" fill="#3C7D62"/>
</svg>
