<svg width="62" height="62" viewBox="0 0 62 62" fill="none" xmlns="http://www.w3.org/2000/svg">
<mask id="mask0_18_4399" style="mask-type:luminance" maskUnits="userSpaceOnUse" x="10" y="10" width="41" height="42">
<path d="M10.4121 10.8149H50.9938V51.3967H10.4121V10.8149Z" fill="white"/>
</mask>
<g mask="url(#mask0_18_4399)">
<path d="M46.9709 42.7234C46.9709 45.2813 44.8784 47.3737 42.3206 47.3737H19.0924C16.5346 47.3737 14.4422 45.2813 14.4422 42.7234V19.4953C14.4422 16.9374 16.5346 14.845 19.0924 14.845H42.3206C44.8784 14.845 46.9709 16.9374 46.9709 19.4953V42.7234ZM42.3206 10.8149H19.0924C14.306 10.8149 10.4121 14.7088 10.4121 19.4953V42.7234C10.4121 47.5099 14.306 51.4037 19.0924 51.4037H42.3206C47.107 51.4037 51.0009 47.5099 51.0009 42.7234V19.4953C51.0009 14.7088 47.107 10.8149 42.3206 10.8149Z" fill="#3C7D62"/>
</g>
<path d="M30.7063 37.9732C26.9153 37.9732 23.8424 34.9003 23.8424 31.1093C23.8424 27.3184 26.9153 24.2455 30.7063 24.2455C34.4972 24.2455 37.5701 27.3184 37.5701 31.1093C37.5701 34.9003 34.4972 37.9732 30.7063 37.9732ZM30.7063 20.3328C24.7642 20.3328 19.9297 25.1673 19.9297 31.1093C19.9297 37.0514 24.7642 41.8859 30.7063 41.8859C36.6483 41.8859 41.4828 37.0514 41.4828 31.1093C41.4828 25.1673 36.6483 20.3328 30.7063 20.3328Z" fill="#3C7D62"/>
<path d="M42.9364 18.3465H40.5607C40.1064 18.3465 39.7344 18.7179 39.7344 19.1725V21.5485C39.7344 22.0028 40.1064 22.3745 40.5607 22.3745H42.9364C43.3909 22.3745 43.7627 22.0028 43.7627 21.5485V19.1725C43.7627 18.7179 43.3909 18.3465 42.9364 18.3465Z" fill="#3C7D62"/>
</svg>
