<svg width="40" height="41" viewBox="0 0 40 41" fill="none" xmlns="http://www.w3.org/2000/svg">
<mask id="mask0_18_4408" style="mask-type:luminance" maskUnits="userSpaceOnUse" x="0" y="0" width="40" height="41">
<path d="M0.600098 0.827393H39.9539V40.2453H0.600098V0.827393Z" fill="white"/>
</mask>
<g mask="url(#mask0_18_4408)">
<path d="M36.6858 0.827393H3.88729C2.07388 0.827393 0.615234 2.30557 0.615234 4.0992V36.9568C0.615234 38.7702 2.09366 40.2288 3.88729 40.2288H36.666C38.4794 40.2288 39.9378 38.7504 39.9378 36.9568V4.09945C39.9576 2.30557 38.4989 0.827393 36.6858 0.827393ZM12.2644 33.3302H6.44956V15.8665H12.2644V33.3302ZM9.34707 13.7574C7.51413 13.7574 6.0357 12.2792 6.0357 10.446C6.0357 8.61309 7.51413 7.13466 9.34707 7.13466C11.1803 7.13466 12.6584 8.61309 12.6584 10.446C12.6584 12.2792 11.1803 13.7574 9.34707 13.7574ZM34.143 33.3302H28.3087L28.1707 22.9624C28.1707 22.9624 28.3087 20.2029 25.293 20.2227C22.2773 20.2422 21.8632 22.9624 21.8632 22.9624V33.3302H15.9896V15.8665H21.6269V18.2713C21.6269 18.2713 21.8632 17.4829 23.1641 16.5565C24.465 15.6299 26.6135 15.4329 27.5401 15.4724C28.4664 15.5117 29.7278 15.354 31.8369 16.8126C34.1035 18.3697 34.1628 22.4499 34.1628 22.4499L34.143 33.3302Z" fill="#3C7D62"/>
</g>
</svg>
