<svg width="53" height="53" viewBox="0 0 53 53" fill="none" xmlns="http://www.w3.org/2000/svg">
<mask id="mask0_18_4407" style="mask-type:luminance" maskUnits="userSpaceOnUse" x="6" y="6" width="40" height="41">
<path d="M6.6001 6.82739H45.9539V46.2453H6.6001V6.82739Z" fill="white"/>
</mask>
<g mask="url(#mask0_18_4407)">
<path d="M42.6858 6.82739H9.88729C8.07388 6.82739 6.61523 8.30557 6.61523 10.0992V42.9568C6.61523 44.7702 8.09366 46.2288 9.88729 46.2288H42.666C44.4794 46.2288 45.9378 44.7504 45.9378 42.9568V10.0995C45.9576 8.30557 44.4989 6.82739 42.6858 6.82739ZM18.2644 39.3302H12.4496V21.8665H18.2644V39.3302ZM15.3471 19.7574C13.5141 19.7574 12.0357 18.2792 12.0357 16.446C12.0357 14.6131 13.5141 13.1347 15.3471 13.1347C17.1803 13.1347 18.6584 14.6131 18.6584 16.446C18.6584 18.2792 17.1803 19.7574 15.3471 19.7574ZM40.143 39.3302H34.3087L34.1707 28.9624C34.1707 28.9624 34.3087 26.2029 31.293 26.2227C28.2773 26.2422 27.8632 28.9624 27.8632 28.9624V39.3302H21.9896V21.8665H27.6269V24.2713C27.6269 24.2713 27.8632 23.4829 29.1641 22.5565C30.465 21.6299 32.6135 21.4329 33.5401 21.4724C34.4664 21.5117 35.7278 21.354 37.8369 22.8126C40.1035 24.3697 40.1628 28.4499 40.1628 28.4499L40.143 39.3302Z" fill="#3C7D62"/>
</g>
</svg>
